<?xml version="1.0" standalone="no"?>
<!DOCTYPE svg PUBLIC "-//W3C//DTD SVG 20010904//EN"
 "http://www.w3.org/TR/2001/REC-SVG-20010904/DTD/svg10.dtd">
<svg version="1.0" xmlns="http://www.w3.org/2000/svg"
 width="1024.000000pt" height="1024.000000pt" viewBox="0 0 1024.000000 1024.000000"
 preserveAspectRatio="xMidYMid meet">

<g transform="translate(0.000000,1024.000000) scale(0.100000,-0.100000)"
fill="#000000" stroke="none">
<path d="M0 8994 c0 -1139 2 -1245 16 -1240 9 4 24 1 32 -6 13 -11 15 -10 9 4
-4 13 -1 16 15 13 26 -5 36 -15 15 -15 -9 0 -19 -5 -23 -12 -5 -8 -2 -9 11 -4
16 6 16 4 4 -10 -12 -15 -15 -15 -27 5 -22 32 -48 12 -50 -38 -1 -23 2 -41 6
-41 5 0 9 6 9 13 0 6 4 20 8 30 4 10 3 17 -4 17 -6 0 -11 5 -11 10 0 6 7 10
15 10 8 0 14 -3 14 -7 -4 -23 3 -31 22 -28 20 4 20 3 5 -14 -19 -21 -21 -32
-3 -26 7 3 19 -10 29 -32 17 -37 18 -37 15 -8 -1 20 2 29 10 27 8 -1 13 8 13
20 0 13 -4 19 -8 13 -8 -11 -42 -16 -42 -6 0 3 8 19 19 34 11 17 17 41 15 60
-3 26 -2 29 7 14 5 -9 8 -21 5 -25 -3 -5 0 -9 7 -9 7 0 12 14 12 31 0 28 3 31
28 28 18 -2 26 1 22 7 -3 6 -1 11 4 11 6 0 11 -5 11 -11 0 -6 6 -9 13 -6 6 2
18 -2 25 -9 7 -8 9 -14 4 -14 -5 0 -9 -7 -9 -15 0 -20 4 -19 17 5 8 14 8 26 0
40 -8 15 -7 27 5 47 15 26 15 19 1 -18 -6 -14 0 -19 57 -47 4 -2 7 1 7 8 0 6
-4 8 -10 5 -5 -3 -10 -1 -10 4 0 6 11 11 24 11 25 0 39 19 28 38 -5 7 -14 5
-27 -5 -16 -13 -17 -15 -2 -10 9 4 17 2 17 -3 0 -16 -36 -12 -50 5 -7 9 -10
18 -7 22 4 3 1 13 -5 22 -10 13 -10 14 1 4 7 -6 21 -9 30 -6 11 4 10 1 -4 -10
-24 -20 -6 -23 20 -3 18 13 18 14 1 31 -18 18 -17 36 1 42 6 2 10 -6 9 -19 -1
-19 4 -22 23 -20 14 1 28 -3 32 -9 5 -8 8 -8 13 0 4 6 -3 15 -16 20 -13 6 -18
10 -11 10 24 2 43 -12 43 -30 0 -12 7 -19 18 -18 10 0 12 3 4 6 -6 2 -12 13
-12 24 0 11 -7 22 -15 25 -8 4 -15 11 -15 16 0 7 5 6 13 -1 19 -15 30 -1 14
17 -9 11 -4 11 16 -2 15 -10 27 -21 27 -25 0 -3 14 -12 30 -19 17 -8 28 -18
24 -23 -3 -5 -1 -9 4 -9 6 0 13 7 16 16 3 8 2 12 -3 9 -13 -8 -68 41 -58 52 5
4 15 -1 23 -11 8 -11 24 -21 36 -23 18 -2 20 -1 8 6 -8 5 -18 7 -22 5 -4 -3
-8 1 -8 9 0 19 40 29 57 15 9 -8 13 -7 13 2 0 9 4 9 13 2 6 -5 22 -8 35 -6 12
2 22 -1 22 -7 0 -5 5 -7 10 -4 6 3 13 -1 16 -9 3 -9 10 -13 16 -10 5 4 5 11
-1 18 -6 7 -7 17 -3 21 4 5 -1 6 -10 2 -16 -6 -33 17 -24 32 3 4 -4 7 -15 7
-10 0 -19 -6 -19 -13 0 -7 8 -13 18 -13 14 0 14 -2 3 -9 -15 -9 -51 6 -51 22
0 4 4 6 9 2 5 -3 12 4 16 15 4 14 13 19 23 16 9 -3 30 -8 46 -12 26 -6 27 -5
17 15 -14 25 -26 28 -16 4 5 -15 4 -16 -6 -5 -9 8 -10 15 -3 22 6 6 20 1 38
-15 33 -29 37 -30 30 -11 -4 10 5 14 36 14 48 1 51 2 53 30 1 12 6 18 15 15
11 -5 11 -7 0 -14 -7 -5 -8 -9 -2 -9 5 0 19 7 30 15 18 13 11 20 -17 17 -3 -1
-6 5 -6 13 0 10 5 11 18 4 10 -5 21 -13 24 -19 9 -14 -14 -52 -27 -44 -7 5 -8
2 -4 -5 13 -20 52 12 48 39 -3 19 0 22 17 17 24 -6 29 8 7 16 -15 6 -16 51 -1
65 4 4 4 1 0 -7 -6 -10 -4 -13 7 -9 8 4 15 0 15 -8 0 -7 -5 -10 -10 -7 -6 4
-7 1 -2 -6 4 -7 16 -11 26 -8 13 4 19 0 20 -11 0 -13 2 -12 9 4 13 34 35 36
47 3 6 -15 8 -30 4 -32 -3 -2 0 -2 6 -1 7 2 13 -2 13 -8 0 -6 3 -8 6 -5 4 4
-1 18 -10 32 -16 24 -16 26 1 32 10 3 23 8 28 10 6 3 3 -1 -6 -9 -14 -12 -13
-16 9 -38 24 -25 24 -25 12 -2 -10 21 -9 26 9 39 12 8 19 18 16 23 -3 4 1 10
9 13 10 4 12 0 8 -15 -4 -18 -1 -20 26 -16 18 2 32 0 32 -4 0 -5 7 -2 16 7 12
12 19 13 24 5 6 -9 9 -9 15 0 5 8 11 6 21 -7 11 -15 13 -15 8 -2 -7 22 14 35
22 15 3 -9 10 -13 16 -10 5 3 1 12 -9 19 -10 7 -21 11 -25 9 -5 -3 -8 0 -8 5
0 14 6 14 32 0 18 -10 19 -8 14 13 -3 12 -3 17 0 10 3 -6 10 -9 15 -6 6 3 5
12 -3 22 -12 15 -11 16 5 3 13 -11 17 -11 17 -1 0 8 3 10 6 7 4 -4 2 -13 -5
-20 -6 -8 -9 -23 -5 -33 5 -16 4 -16 -5 -4 -7 9 -11 10 -11 3 0 -6 5 -15 11
-19 8 -4 7 -9 -2 -16 -11 -8 -11 -9 1 -5 8 2 14 10 12 16 -1 6 5 11 13 11 14
0 19 -11 16 -37 -1 -6 3 -14 9 -18 6 -4 7 1 3 11 -4 11 -3 15 5 10 6 -3 14 -1
18 5 4 8 3 9 -4 5 -6 -3 -16 2 -21 13 -15 28 -14 36 5 21 13 -11 19 -9 42 15
17 18 19 22 5 11 -29 -24 -58 -15 -43 14 6 11 8 26 4 32 -4 7 -3 8 5 4 13 -9
11 -37 -4 -48 -6 -5 -3 -8 7 -8 9 0 20 4 23 10 3 5 15 15 27 21 16 9 19 8 13
-2 -6 -9 -4 -11 7 -6 9 3 24 0 34 -8 13 -9 23 -10 31 -3 10 8 13 6 13 -5 0 -9
5 -19 10 -22 6 -4 9 -1 8 6 -2 6 3 14 11 17 9 3 11 0 6 -9 -5 -8 -5 -11 0 -7
4 4 14 0 22 -10 13 -16 14 -15 8 5 -4 15 -1 23 12 26 10 2 5 3 -11 1 -24 -3
-27 -2 -16 11 7 9 15 13 18 10 3 -2 23 9 46 25 l40 30 12 -22 c9 -17 10 -25 1
-31 -8 -6 -7 -7 3 -4 8 2 23 0 32 -4 13 -7 16 -5 13 10 -2 11 2 24 9 30 10 8
11 4 8 -21 -3 -20 -1 -29 6 -24 13 8 11 79 -3 88 -6 5 -3 8 8 8 9 0 17 -5 17
-11 0 -5 5 -7 11 -3 8 4 8 0 0 -15 -10 -17 -9 -22 4 -27 21 -8 19 -25 -2 -18
-15 5 -16 4 -3 -5 19 -13 39 4 23 20 -8 8 -7 16 5 30 15 17 16 17 28 1 8 -9
14 -12 14 -6 0 7 11 9 28 7 22 -4 24 -2 12 7 -13 10 -13 11 3 6 12 -4 17 0 18
17 0 20 2 19 11 -5 5 -16 14 -28 19 -28 4 0 5 7 2 17 -4 11 -3 14 6 9 6 -4 18
-2 26 4 15 12 20 4 16 -22 0 -5 4 -8 10 -8 6 0 9 -7 5 -15 -3 -8 -1 -15 4 -15
14 0 12 44 -2 59 -7 7 -8 12 -3 11 21 -4 36 0 31 9 -3 5 3 11 13 14 12 3 22
-1 25 -10 9 -23 7 -26 -9 -13 -12 10 -15 9 -15 -4 0 -11 -5 -14 -12 -10 -7 5
-8 3 -4 -5 5 -7 14 -10 22 -7 7 3 16 0 20 -6 4 -7 3 -8 -4 -4 -7 4 -12 2 -12
-4 0 -7 8 -9 20 -5 15 5 20 2 20 -12 1 -13 5 -11 16 10 15 27 16 28 29 10 8
-10 15 -13 15 -6 0 6 -5 15 -10 18 -6 4 -7 12 -3 18 5 9 3 9 -8 1 -22 -17 -49
-24 -49 -13 0 5 11 14 24 19 18 7 23 15 20 37 -4 27 -3 27 5 3 5 -14 9 -21 10
-16 1 5 8 3 16 -4 10 -8 15 -9 15 -2 0 6 -8 16 -17 21 -10 6 -13 11 -6 11 6 0
18 -9 26 -20 8 -11 17 -17 21 -13 4 4 11 1 16 -7 14 -22 12 -28 -10 -32 -16
-2 -11 -8 21 -25 28 -16 39 -18 36 -8 -3 7 -1 16 6 18 7 2 8 8 3 13 -5 5 -11
4 -13 -3 -6 -18 -23 -16 -23 2 0 16 9 19 50 17 38 -2 50 -10 50 -32 0 -21 24
-28 35 -10 3 6 11 10 16 10 6 0 7 -4 4 -10 -3 -5 -1 -10 5 -10 7 0 10 6 7 14
-3 8 1 16 9 18 11 2 9 6 -7 16 -19 12 -21 12 -16 -1 3 -9 -4 -19 -19 -26 -28
-12 -32 -4 -6 16 9 8 11 12 5 8 -7 -3 -13 -1 -13 4 0 6 8 12 18 12 9 1 24 2
32 3 8 0 18 -3 22 -9 5 -6 8 -4 8 5 0 13 1 13 10 0 6 -9 5 -20 -3 -30 -11 -13
-10 -13 6 -1 13 11 17 11 17 1 0 -8 3 -11 6 -7 3 3 2 12 -2 19 -11 17 -14 38
-5 38 3 0 11 -10 16 -22 6 -13 18 -22 27 -22 9 1 19 -5 22 -13 4 -10 1 -13
-13 -8 -12 3 -21 0 -24 -9 -4 -10 -1 -13 9 -9 14 5 20 -12 7 -20 -5 -2 -3 -3
3 -1 6 1 17 -2 23 -7 8 -6 8 -5 1 3 -7 8 -4 18 7 30 10 11 11 18 5 18 -7 0
-12 7 -12 16 0 11 -6 13 -19 9 -26 -8 -35 9 -13 26 16 13 16 13 2 -5 -14 -18
-13 -18 8 -12 17 6 27 3 37 -11 13 -17 14 -17 10 5 -2 12 0 22 6 22 5 0 9 -6
9 -14 0 -8 5 -18 10 -21 11 -7 8 30 -3 41 -11 12 -8 21 8 21 8 0 12 -4 9 -8
-3 -5 2 -19 11 -32 8 -13 12 -27 8 -31 -4 -3 4 -5 18 -4 29 4 53 24 46 41 -3
7 2 21 9 32 13 18 14 17 8 -13 -6 -32 -6 -33 20 -26 18 4 26 2 26 -7 0 -11 3
-11 10 1 6 10 10 11 10 3 0 -7 5 -13 11 -13 5 0 7 5 4 10 -3 6 -2 10 3 10 4 0
18 9 31 21 22 20 23 20 36 3 19 -25 19 -43 0 -50 -8 -4 -12 -10 -9 -15 8 -13
31 14 37 42 4 23 4 23 6 -2 1 -22 6 -27 25 -25 13 0 24 5 23 11 -1 5 5 10 13
10 8 0 14 6 13 11 -1 6 4 11 11 11 7 0 13 -6 13 -13 0 -7 -4 -11 -9 -8 -4 3
-8 1 -8 -4 0 -20 14 -20 38 -1 17 13 28 16 32 9 5 -8 12 -6 24 5 15 15 16 15
16 -4 0 -12 6 -21 16 -21 9 0 12 5 8 12 -4 7 -3 8 4 4 16 -10 15 -26 -2 -26
-8 0 -17 -7 -20 -16 -6 -15 -4 -15 11 -3 15 13 16 12 11 -8 -4 -13 -2 -23 3
-23 5 0 11 10 14 23 5 17 13 23 33 21 37 -2 39 -3 24 -13 -11 -7 -11 -9 2 -14
8 -3 18 -2 21 3 3 5 12 7 20 4 8 -4 12 -10 9 -15 -3 -5 -9 -7 -14 -4 -4 3 -10
-1 -13 -9 -4 -10 0 -12 14 -9 10 3 20 9 21 14 4 26 1 32 -15 35 -24 3 -48 24
-41 35 3 5 12 5 22 0 9 -4 24 -6 32 -4 13 4 13 3 0 -6 -8 -5 -19 -7 -25 -4 -5
4 -7 3 -3 -2 13 -13 78 -13 89 2 9 10 8 13 0 13 -7 0 -21 9 -33 20 -20 19 -44
18 -33 -1 4 -5 0 -9 -8 -9 -10 0 -13 7 -10 19 5 21 16 21 51 3 19 -11 23 -10
28 3 3 8 11 12 16 9 6 -4 5 -10 -3 -14 -10 -7 -10 -12 1 -25 11 -13 11 -18 1
-24 -9 -6 -8 -11 4 -21 12 -10 18 -10 32 1 9 8 14 9 11 4 -4 -6 -3 -17 1 -24
6 -9 11 -10 15 -2 4 6 2 11 -5 11 -8 0 -7 5 2 17 8 9 9 14 4 11 -6 -4 -11 2
-11 12 0 14 4 16 17 9 25 -13 39 -11 33 5 -3 8 0 17 7 22 8 4 10 3 5 -4 -4 -7
-1 -18 6 -26 11 -11 15 -11 26 3 11 14 12 13 3 -5 -6 -12 -7 -25 -3 -30 4 -5
-1 -2 -10 5 -10 7 -24 11 -32 8 -7 -3 -19 0 -26 6 -10 10 -10 8 -3 -8 6 -11 8
-26 5 -34 -3 -8 0 -11 7 -7 6 4 11 15 12 24 0 11 2 12 6 4 2 -6 9 -10 14 -6 5
3 9 0 9 -6 0 -6 5 -8 10 -5 6 3 10 2 10 -4 0 -5 -6 -12 -12 -15 -10 -5 -10 -7
0 -12 6 -3 12 -12 12 -19 0 -17 30 -34 48 -28 6 3 12 9 12 15 0 7 -4 7 -13 0
-16 -14 -32 -4 -41 25 -6 19 -2 25 20 33 20 8 30 8 38 -1 8 -9 7 -11 -4 -7
-11 4 -16 -1 -17 -16 0 -11 1 -16 4 -9 3 10 7 10 18 0 7 -7 11 -15 8 -19 -2
-4 3 -5 11 -2 9 3 16 10 16 16 0 5 -4 6 -10 3 -6 -4 -10 6 -9 22 0 16 3 22 6
13 13 -34 59 -33 50 1 -3 11 -1 19 5 19 5 0 6 5 2 12 -4 6 -3 8 4 5 11 -8 5
-44 -11 -65 -7 -9 -5 -11 8 -6 14 6 16 4 10 -6 -6 -9 -4 -11 5 -5 8 5 11 3 8
-6 -3 -8 -12 -13 -22 -11 -9 2 -16 -2 -16 -8 0 -6 5 -8 12 -4 8 5 9 2 4 -11
-5 -15 -2 -14 17 5 13 14 22 28 20 32 -2 5 7 7 21 6 27 -2 34 -12 16 -23 -5
-3 -7 -12 -3 -21 4 -11 9 -12 19 -4 7 7 10 19 7 28 -6 15 -5 16 12 2 11 -8 28
-24 37 -35 18 -20 18 -19 8 8 -9 26 -6 32 14 28 5 -1 4 5 -3 13 -7 9 -17 14
-20 11 -4 -2 -8 1 -8 8 0 17 66 -13 67 -30 0 -14 26 -13 48 1 7 4 16 5 19 2 3
-3 12 -1 20 6 8 6 13 7 12 2 -1 -5 2 -24 6 -42 6 -26 10 -30 22 -21 10 9 12 9
8 -2 -4 -10 2 -15 14 -16 18 -2 19 0 5 33 -8 19 -11 34 -8 34 14 0 44 -44 40
-57 -3 -8 2 -13 12 -13 15 0 15 -2 2 -11 -13 -9 -13 -10 0 -7 8 3 17 13 20 24
3 10 14 20 25 22 19 3 19 3 1 -11 -10 -7 -16 -20 -13 -28 4 -10 6 -8 6 5 1 16
3 16 17 6 12 -11 15 -11 12 0 -2 10 9 14 39 14 23 1 39 -1 37 -3 -8 -8 18 -31
28 -25 6 4 5 -3 -1 -15 -7 -12 -9 -27 -4 -34 5 -8 9 -4 13 12 3 14 12 27 20
29 13 5 13 3 1 -12 -8 -9 -11 -19 -7 -23 3 -3 6 -1 6 5 0 6 8 10 19 9 13 -1
17 -7 13 -22 -4 -20 -4 -20 11 0 9 11 17 15 17 10 0 -15 43 -16 52 -2 13 20
10 -11 -3 -35 l-11 -21 -12 21 c-8 15 -15 19 -26 12 -10 -6 -11 -10 -3 -10 7
0 11 -6 9 -12 -1 -7 -1 -9 2 -5 2 4 10 3 17 -3 10 -8 17 -6 28 11 15 21 44 18
31 -3 -4 -7 -2 -8 4 -4 7 4 12 1 12 -8 0 -10 6 -13 17 -9 10 4 12 8 6 10 -7 3
-9 11 -6 19 3 8 2 14 -3 12 -5 -2 -9 2 -9 7 0 5 5 8 10 6 6 -2 16 -4 22 -4 9
0 9 -4 3 -12 -11 -13 17 -15 36 -2 6 3 20 -1 30 -9 10 -9 13 -13 7 -9 -7 3
-13 0 -13 -7 0 -16 20 -38 34 -38 5 0 1 7 -10 15 -10 8 -14 14 -9 13 14 -4 55
39 47 49 -4 4 3 0 14 -10 17 -14 23 -15 27 -5 4 8 6 7 6 -4 1 -20 -10 -23 -26
-7 -15 15 -48 -19 -33 -35 5 -7 6 -17 2 -22 -4 -4 1 -2 11 5 9 7 17 19 17 25
0 6 -5 4 -10 -4 -8 -13 -10 -13 -10 2 0 13 8 16 33 15 26 -2 33 -6 32 -22 0
-11 -9 -26 -20 -33 l-20 -13 20 7 c11 4 28 7 37 8 9 0 15 3 12 7 -2 4 3 12 11
19 13 11 15 10 12 -6 -1 -11 -5 -24 -9 -29 -4 -6 1 -11 11 -11 12 0 17 6 13
18 -2 10 -1 18 2 18 9 0 48 -23 63 -37 8 -7 19 -10 26 -7 8 3 26 -2 43 -10 26
-14 29 -14 36 2 7 15 8 15 5 -2 -2 -23 -32 -29 -47 -11 -6 8 -22 11 -37 9 -16
-3 -34 2 -47 13 l-21 18 19 -22 c19 -23 10 -33 -10 -13 -11 11 -74 -17 -74
-33 0 -5 14 1 30 13 25 18 34 19 45 10 8 -7 13 -16 10 -20 -3 -5 -1 -12 5 -15
6 -4 10 -3 9 2 -4 22 2 35 15 30 8 -3 17 -1 20 6 3 9 5 8 5 -1 1 -7 5 -11 10
-7 5 3 15 -1 23 -8 7 -8 21 -13 30 -11 10 1 15 -3 11 -11 -2 -8 -11 -11 -18
-9 -17 7 -29 -12 -14 -22 8 -4 9 -3 5 4 -4 7 -2 12 4 12 14 0 24 -26 15 -40
-4 -6 -12 -7 -19 -3 -7 4 -4 1 5 -8 14 -13 15 -19 6 -30 -10 -11 -9 -11 5 0 9
7 15 18 12 25 -3 8 2 20 10 29 8 8 12 18 8 22 -4 4 3 2 16 -4 20 -11 21 -15
11 -29 -12 -16 -12 -16 5 -1 17 15 17 19 2 48 -9 17 -21 31 -26 31 -6 0 -10 7
-10 15 0 8 7 15 15 15 8 0 15 -5 15 -11 0 -5 -6 -7 -12 -3 -7 4 -2 -4 12 -17
25 -24 53 -26 80 -6 13 10 13 10 1 -5 -8 -11 -11 -28 -7 -44 5 -18 1 -33 -11
-48 -16 -19 -16 -19 0 -7 9 7 17 10 17 6 0 -4 8 -1 17 6 10 8 14 9 10 2 -4 -6
-3 -14 2 -17 9 -6 24 34 16 43 -3 2 -5 -1 -5 -7 0 -6 -7 -9 -15 -6 -12 5 -13
10 -4 20 7 9 8 14 1 14 -13 0 -10 24 3 28 5 2 12 -5 16 -15 4 -10 8 -12 8 -5
1 19 18 14 24 -8 3 -11 2 -18 -2 -15 -4 2 -8 -2 -8 -8 0 -7 12 -13 26 -12 16
0 25 6 23 14 -2 9 3 11 13 7 9 -3 19 -6 21 -6 3 0 3 -4 0 -9 -3 -5 1 -14 9
-21 13 -11 21 -8 47 16 17 16 28 23 24 17 -4 -7 -2 -13 3 -13 6 0 11 -4 11 -9
0 -5 -10 -7 -22 -5 -13 2 -17 2 -10 -2 18 -8 4 -24 -15 -17 -13 5 -15 3 -9
-13 5 -10 9 -24 9 -31 0 -7 4 -10 9 -7 4 3 8 0 8 -7 0 -9 3 -9 14 0 10 8 16 9
21 1 6 -9 -14 -14 -42 -11 -7 1 -13 -2 -13 -7 0 -16 13 -21 30 -12 23 12 33 1
17 -19 -10 -13 -10 -14 3 -5 24 17 63 16 56 -2 -3 -8 1 -14 9 -14 8 0 15 5 15
10 0 6 6 5 14 -2 8 -7 12 -16 10 -19 -2 -4 4 -6 14 -5 12 1 16 -5 14 -19 -2
-11 1 -16 5 -10 13 16 33 16 33 -1 0 -8 4 -13 10 -9 5 3 7 12 4 19 -3 8 0 17
6 21 9 6 9 10 -1 16 -9 5 1 7 25 4 35 -5 38 -3 33 15 -3 11 -2 20 3 20 16 0
18 -40 2 -50 -15 -9 -14 -10 6 -16 12 -3 22 -10 22 -15 0 -5 -7 -5 -17 -2 -11
4 -14 3 -9 -6 5 -7 15 -9 25 -6 9 4 23 8 31 9 35 5 48 18 44 42 -2 13 0 24 6
24 9 0 14 -14 11 -32 0 -5 3 -8 8 -8 6 0 9 -9 8 -20 -1 -11 -5 -20 -10 -20 -5
0 -7 6 -4 14 4 10 0 12 -14 9 -10 -3 -16 -10 -12 -16 3 -6 1 -7 -6 -3 -7 5
-15 -4 -23 -24 -7 -22 -14 -28 -21 -21 -6 6 -15 11 -20 11 -5 0 -1 -7 8 -16
13 -13 13 -19 3 -33 -11 -14 -11 -14 3 -4 9 7 19 10 23 6 4 -4 4 0 0 10 -3 10
-1 17 5 17 6 0 11 9 11 21 0 19 1 19 16 5 8 -9 12 -21 8 -28 -5 -8 -1 -8 10 1
17 14 17 15 0 28 -10 7 -14 13 -9 13 5 0 20 -10 33 -22 22 -21 24 -21 14 -3
-9 18 -7 20 20 20 27 1 28 0 12 -12 -10 -7 -14 -13 -9 -13 5 0 4 -5 -3 -12 -8
-8 -15 -8 -27 2 -9 8 -15 9 -15 2 0 -6 -10 -21 -23 -32 -14 -14 -17 -20 -7
-18 8 2 18 7 22 12 4 6 12 5 21 -2 8 -7 21 -10 29 -7 9 4 18 -1 22 -11 5 -13
9 -14 21 -4 8 7 15 17 15 22 0 7 -5 6 -13 -1 -8 -6 -17 -8 -20 -5 -7 7 36 44
50 44 4 0 1 -5 -7 -10 -8 -5 -10 -10 -4 -10 7 0 15 -7 18 -15 4 -11 -3 -19
-22 -27 -22 -9 -24 -12 -9 -15 10 -3 24 0 32 7 9 8 15 8 20 0 5 -8 11 -8 21 1
11 9 18 8 32 -5 10 -9 21 -14 23 -11 3 2 5 -4 6 -14 2 -23 -28 -33 -45 -14 -7
7 -8 13 -3 13 6 0 8 7 5 15 -9 24 -33 -1 -26 -27 4 -15 2 -19 -7 -13 -7 4 -10
16 -8 27 5 17 2 19 -16 14 -12 -3 -28 -6 -34 -6 -7 0 -13 -4 -13 -9 0 -4 11
-6 25 -3 17 3 25 0 23 -8 -4 -17 33 -39 39 -22 3 6 9 10 13 7 15 -10 -1 -34
-18 -29 -9 3 -6 -1 8 -9 14 -9 29 -13 35 -10 5 2 -1 -5 -15 -17 -23 -20 -23
-20 -2 -10 16 8 22 8 22 0 0 -6 4 -9 9 -6 5 4 12 0 14 -6 4 -9 6 -10 6 -1 1 6
-3 15 -9 18 -5 3 -10 11 -10 16 0 6 5 7 11 3 7 -4 10 -1 7 7 -3 8 -12 14 -21
14 -25 0 -25 18 -1 21 16 3 24 -3 28 -22 4 -15 11 -22 18 -18 7 4 8 3 4 -5 -4
-6 -13 -8 -19 -5 -7 4 -4 -1 5 -11 15 -16 15 -20 2 -29 -12 -9 -12 -13 5 -23
15 -9 22 -10 27 -1 4 7 3 8 -4 4 -7 -4 -12 -1 -12 7 0 8 7 17 15 21 8 3 15 2
15 -3 0 -4 14 -6 30 -3 17 2 30 8 30 12 0 5 10 6 22 2 31 -8 76 -32 60 -32 -7
0 -10 -5 -7 -10 4 -6 1 -9 -7 -8 -8 2 -13 -6 -12 -19 1 -24 -11 -29 -36 -13
-12 8 -12 10 3 16 9 3 17 11 17 16 0 7 -5 6 -13 -1 -8 -6 -17 -8 -20 -4 -4 3
-7 -2 -7 -13 0 -12 -3 -15 -8 -8 -5 9 -11 8 -20 -2 -11 -13 -9 -14 13 -10 20
4 25 1 21 -9 -2 -7 3 -19 12 -27 15 -12 16 -11 4 4 -7 9 -9 19 -4 22 5 3 14
-6 21 -20 14 -32 14 -32 -6 -38 -14 -4 -13 -4 2 -3 12 2 19 10 19 20 -2 25 9
21 29 -10 l17 -28 -4 28 c-4 24 -2 27 19 23 25 -5 40 5 28 18 -3 3 -12 1 -20
-5 -9 -8 -13 -8 -13 -1 0 6 5 14 10 17 6 4 7 11 4 17 -4 6 -10 5 -15 -3 -5 -8
-9 -9 -9 -4 0 6 4 16 9 23 7 11 9 10 15 -3 3 -9 11 -13 17 -9 8 4 8 9 1 13 -7
4 -3 16 9 31 20 24 20 24 9 2 -6 -13 -9 -26 -6 -29 3 -4 1 -12 -5 -20 -9 -10
-7 -18 6 -33 10 -11 15 -23 12 -27 -4 -3 -7 0 -7 8 0 22 -20 -12 -20 -35 0
-13 4 -16 13 -9 6 5 23 7 37 3 22 -5 22 -7 7 -13 -14 -5 -16 -11 -8 -25 7 -13
6 -23 -2 -31 -9 -10 -9 -11 4 -6 10 4 19 -2 27 -19 10 -22 32 -29 47 -14 3 3
17 3 32 0 24 -4 25 -6 9 -18 -11 -8 -13 -14 -6 -19 5 -3 8 -11 5 -16 -4 -5 -1
-9 5 -9 7 0 9 8 5 21 -5 16 -4 19 5 14 9 -5 11 -4 6 3 -11 19 5 14 20 -5 10
-13 13 -14 14 -4 0 10 3 11 14 2 8 -7 13 -23 11 -36 -1 -14 2 -25 6 -25 5 0 9
8 9 19 0 13 10 21 33 26 55 13 78 14 71 4 -3 -6 -13 -8 -21 -5 -9 4 -11 2 -7
-6 4 -6 7 -24 6 -39 0 -16 4 -31 9 -34 5 -4 9 -14 9 -23 0 -15 -2 -15 -11 -2
-8 12 -10 12 -7 1 2 -8 14 -15 26 -16 13 -1 18 3 14 9 -7 11 -14 46 -16 80 0
10 5 20 12 22 7 1 8 0 2 -3 -7 -3 -4 -11 7 -20 10 -8 13 -12 6 -9 -12 7 -12
-11 0 -31 5 -7 5 -18 2 -23 -3 -6 5 -14 19 -20 31 -11 34 -20 6 -15 -11 2 -20
-1 -20 -7 0 -5 7 -8 15 -4 8 3 15 1 15 -3 0 -5 7 -8 15 -7 19 3 32 16 16 16
-7 0 -10 4 -7 9 3 5 -1 12 -10 15 -8 3 -12 10 -9 16 4 6 14 1 26 -12 16 -20
20 -21 29 -8 7 11 10 11 10 2 0 -8 5 -10 13 -6 8 5 8 2 -2 -9 -7 -9 -10 -17
-5 -18 29 -3 51 -7 68 -14 15 -7 17 -5 11 6 -5 8 -5 11 1 6 9 -8 10 -12 13
-38 0 -6 8 -8 16 -5 13 5 12 1 -2 -19 -20 -27 -29 -30 -38 -15 -3 6 1 10 9 10
18 0 20 8 7 29 -5 8 -14 10 -21 6 -8 -5 -11 -4 -7 2 9 14 -13 22 -47 19 -14
-2 -23 0 -21 5 3 4 1 10 -5 14 -5 3 -10 0 -10 -8 0 -16 -26 -30 -39 -22 -4 2
-8 -2 -8 -10 0 -10 5 -11 17 -5 23 12 54 7 62 -10 5 -12 7 -11 7 3 1 29 25 14
26 -15 0 -15 3 -30 7 -34 4 -4 3 -13 -3 -21 -9 -9 -8 -13 0 -13 10 0 15 13 12
33 -2 11 9 9 55 -15 24 -12 44 -28 44 -37 0 -10 -8 -7 -28 12 -27 26 -49 37
-38 18 3 -5 -4 -11 -16 -14 -17 -5 -19 -9 -10 -20 7 -8 8 -18 4 -22 -4 -5 -1
-5 7 0 9 5 19 2 28 -10 7 -11 13 -13 13 -6 0 7 4 10 10 6 5 -3 7 -12 4 -20 -4
-8 -10 -12 -15 -9 -5 3 -9 0 -9 -5 0 -14 6 -14 32 0 19 10 20 9 15 -12 -5 -21
-5 -22 7 -7 9 12 16 14 23 7 18 -18 35 -1 23 21 -13 25 -13 51 0 30 5 -8 10
-13 11 -10 6 34 9 43 15 48 6 6 3 -20 -7 -57 -2 -8 4 -16 13 -19 12 -2 16 2
13 16 -2 11 2 19 11 19 10 0 11 -4 3 -14 -16 -19 1 -16 23 4 11 9 25 18 33 19
23 3 17 -6 -10 -16 -26 -10 -32 -24 -15 -35 6 -3 10 -1 10 6 0 7 3 9 6 6 4 -3
16 -2 28 4 19 9 19 8 -1 -7 -27 -19 -30 -44 -7 -44 14 0 14 3 4 15 -7 8 -8 15
-3 15 5 0 16 -12 24 -27 22 -44 22 -49 4 -28 -14 17 -16 17 -11 3 3 -10 0 -18
-6 -18 -9 0 -9 -3 0 -12 7 -7 12 -17 12 -23 0 -5 -7 -1 -15 9 -8 10 -12 22
-10 27 3 4 -7 6 -21 4 -35 -3 -46 -23 -25 -44 13 -14 18 -14 29 -4 16 15 32 9
32 -12 0 -8 -6 -12 -14 -9 -8 3 -17 1 -20 -4 -3 -5 6 -8 19 -6 28 3 34 -12 8
-19 -17 -4 -17 -5 0 -6 11 -1 15 -6 11 -13 -4 -6 -3 -8 4 -5 5 4 9 18 7 32 -1
16 3 25 12 25 9 0 11 -5 7 -12 -4 -7 -4 -10 1 -6 4 4 14 3 21 -3 8 -7 14 -7
19 1 3 5 -1 10 -10 10 -9 0 -13 5 -10 10 4 7 12 7 25 0 24 -13 52 -14 32 -1
-8 4 -13 11 -13 15 3 18 0 20 -9 6 -5 -8 -10 -10 -10 -4 0 18 26 35 44 28 18
-7 21 -20 7 -28 -5 -4 -8 -14 -6 -24 2 -9 4 -19 4 -22 1 -3 6 2 11 10 8 12 10
12 10 -5 0 -17 6 -20 35 -19 19 1 33 -2 30 -6 -3 -5 -17 -6 -32 -4 -21 4 -24
2 -15 -8 14 -17 9 -51 -8 -56 -9 -3 -11 1 -7 12 4 9 1 16 -6 16 -7 0 -13 -9
-13 -19 0 -11 3 -19 6 -19 23 2 32 -3 23 -14 -6 -7 -13 -21 -17 -32 -5 -15 -2
-14 18 5 15 15 21 28 16 34 -6 7 -1 16 13 24 14 9 18 9 11 1 -7 -6 -10 -19 -7
-28 5 -21 49 -43 70 -35 10 4 14 2 10 -4 -4 -6 0 -16 8 -23 10 -9 15 -9 15 -1
0 6 -4 11 -9 11 -5 0 -8 6 -7 13 3 20 17 38 26 32 4 -3 10 5 13 16 3 12 10 18
16 14 7 -4 8 1 4 12 -6 16 -5 16 10 5 9 -8 26 -11 39 -7 22 6 22 5 3 -7 -11
-7 -24 -13 -30 -14 -5 0 -16 -2 -24 -2 -7 -1 -11 -8 -7 -17 3 -8 2 -14 -2 -14
-22 4 -46 -2 -37 -9 18 -12 12 -47 -7 -44 -10 2 -18 -2 -18 -8 0 -6 4 -9 9 -5
14 8 25 -15 14 -26 -6 -6 -15 -4 -23 6 -7 8 -21 15 -32 15 -19 0 -19 1 3 21
l24 21 -25 -15 c-14 -8 -25 -20 -25 -26 0 -6 3 -10 6 -8 3 1 13 -4 22 -12 10
-7 17 -10 17 -6 0 4 13 -6 29 -23 36 -37 84 -47 88 -17 2 11 0 14 -3 8 -7 -16
-40 -17 -50 -1 -5 7 0 9 14 6 14 -4 23 0 27 11 5 13 9 12 20 -9 9 -16 10 -30
4 -42 -7 -13 -6 -16 5 -12 23 9 28 -14 6 -29 -16 -11 -18 -16 -7 -25 8 -7 18
-7 27 -2 10 7 11 10 3 10 -7 0 -13 5 -13 11 0 8 5 8 15 -1 11 -9 12 -16 5 -25
-8 -9 -8 -15 0 -20 5 -3 10 1 10 11 0 12 6 15 23 11 20 -6 21 -5 4 8 -18 13
-17 14 2 20 12 3 21 10 21 15 0 9 -26 7 -36 -3 -11 -11 -36 -8 -29 3 4 6 2 16
-4 23 -7 10 -4 13 12 14 15 2 18 0 8 -6 -10 -6 -10 -10 -1 -16 12 -7 25 1 25
16 0 5 5 8 10 7 6 -2 9 -6 8 -9 -1 -4 7 -15 18 -25 16 -14 22 -16 28 -5 6 9
11 10 15 3 8 -13 -30 -36 -44 -27 -6 3 -10 -1 -10 -10 0 -12 5 -15 16 -11 12
5 15 2 10 -10 -7 -20 40 -68 56 -58 6 4 8 3 5 -3 -3 -5 0 -21 7 -35 11 -20 11
-25 0 -25 -8 0 -14 5 -14 10 0 6 -3 7 -6 4 -4 -4 -1 -13 5 -21 7 -8 9 -21 5
-27 -4 -8 -3 -9 5 -5 6 4 14 0 17 -8 8 -21 20 -20 28 0 4 11 2 15 -8 11 -8 -3
-17 1 -20 9 -7 18 32 13 43 -5 6 -10 10 -9 14 3 4 9 12 16 18 16 9 0 9 -3 0
-14 -9 -11 -9 -15 1 -19 10 -4 9 -9 -4 -20 -10 -8 -15 -17 -11 -20 3 -4 1 -7
-5 -7 -7 0 -12 -5 -12 -11 0 -8 5 -8 15 1 8 7 15 9 15 5 0 -4 7 -2 15 5 9 7
14 19 11 27 -3 7 -1 13 4 13 6 0 10 -4 10 -9 0 -5 3 -18 6 -28 4 -13 3 -14 -4
-5 -7 11 -10 11 -15 -2 -4 -11 -1 -16 11 -16 14 -1 13 -4 -7 -20 -15 -13 -18
-20 -9 -20 8 0 19 5 26 12 9 9 15 9 25 -1 10 -11 9 -13 -6 -8 -11 4 -16 3 -12
-3 3 -6 -2 -10 -11 -10 -20 0 -11 -13 11 -16 8 -1 13 2 9 7 -3 5 -2 9 1 9 9 0
31 -23 33 -35 1 -5 6 -10 11 -10 19 0 22 -14 9 -35 -11 -18 -11 -23 7 -33 11
-6 24 -12 30 -12 5 0 10 -7 11 -15 2 -35 5 -41 14 -35 8 5 8 11 1 19 -7 9 -7
17 2 26 7 8 8 11 1 7 -7 -4 -17 0 -23 7 -10 12 -9 13 7 9 15 -4 26 5 44 36 14
23 27 38 31 35 3 -3 -2 -15 -13 -26 -23 -25 -19 -54 6 -50 15 3 16 1 7 -9 -10
-10 -16 -9 -29 2 -16 12 -17 12 -11 -3 3 -10 2 -18 -4 -18 -5 0 -4 -6 3 -14 9
-10 19 -11 35 -3 16 7 26 7 36 -1 10 -9 17 -8 27 1 10 9 11 9 6 0 -5 -9 -1
-13 11 -13 26 0 48 16 34 24 -6 4 -11 13 -11 19 1 17 24 -25 25 -45 1 -13 -2
-15 -10 -8 -15 12 -25 3 -25 -23 0 -15 -3 -17 -14 -8 -17 14 -63 -3 -63 -24 0
-10 5 -11 21 -2 12 7 24 17 28 22 5 6 8 5 8 -2 0 -19 27 -16 34 3 5 13 9 14
21 4 8 -7 12 -17 8 -23 -4 -6 -9 -3 -14 9 -6 16 -8 14 -8 -9 -1 -20 3 -26 12
-21 9 6 9 5 -1 -8 -10 -13 -9 -18 4 -29 14 -11 15 -10 12 7 -2 14 4 20 21 22
23 4 23 3 7 -13 -12 -13 -14 -21 -6 -30 6 -7 7 -16 2 -19 -9 -5 -86 67 -78 75
2 2 -6 5 -19 5 -16 1 -22 -2 -18 -12 3 -8 0 -21 -6 -28 -8 -10 -9 -16 -1 -19
6 -3 5 -4 -2 -3 -7 2 -12 10 -10 20 2 9 -2 16 -8 16 -20 0 -10 -39 12 -46 l23
-7 -24 -9 c-17 -6 -27 -5 -33 4 -7 10 -9 9 -5 -2 3 -13 24 -17 60 -11 4 0 5
15 2 33 -6 32 -6 32 14 14 11 -10 19 -22 16 -25 -2 -4 5 -8 16 -8 18 -2 19 0
7 15 -12 15 -11 16 4 4 10 -8 16 -19 15 -25 -1 -7 5 -11 14 -9 9 1 23 -6 30
-15 13 -16 12 -17 -3 -5 -13 10 -22 11 -37 2 -19 -10 -25 -7 -23 11 1 3 -5 6
-13 6 -10 0 -11 -4 -2 -19 7 -10 15 -18 18 -18 4 0 7 -11 7 -25 0 -14 -5 -25
-10 -25 -5 0 -6 5 -3 10 3 6 -1 10 -9 10 -21 0 -20 -20 2 -36 15 -12 15 -15 2
-24 -12 -8 -11 -10 6 -10 17 0 21 6 20 28 -1 24 2 27 27 24 21 -2 27 1 27 17
0 11 5 23 10 26 6 4 7 12 4 18 -5 9 -4 9 5 1 9 -8 8 -17 -3 -39 -14 -27 -14
-31 7 -55 l22 -25 -29 25 c-22 19 -28 21 -23 8 3 -10 2 -20 -3 -23 -6 -4 -10
-14 -10 -25 0 -14 -5 -17 -22 -13 -13 3 -19 2 -15 -2 16 -18 38 -13 47 10 6
17 14 22 29 18 12 -3 17 -11 14 -19 -3 -8 -9 -12 -13 -9 -5 3 -11 1 -14 -4 -3
-5 1 -12 10 -15 13 -5 14 -9 4 -21 -6 -8 -10 -20 -7 -27 4 -8 6 -7 6 5 1 19 6
20 36 7 14 -6 15 -9 5 -10 -12 0 -12 -2 2 -10 10 -6 14 -18 11 -30 -3 -12 0
-20 8 -20 7 0 9 3 6 7 -4 3 -2 12 3 18 8 9 6 14 -5 19 -12 4 -14 10 -5 25 14
27 13 31 -7 25 -14 -5 -15 -4 -4 4 9 7 10 12 2 16 -6 4 -11 2 -11 -3 0 -6 -7
-11 -15 -11 -8 0 -15 3 -15 6 0 9 27 33 33 28 2 -3 7 5 10 16 4 17 2 20 -10
16 -13 -5 -14 -4 -4 8 9 11 9 16 0 22 -8 4 -9 3 -5 -4 4 -7 3 -12 -2 -12 -8 0
-22 22 -22 35 0 2 13 -2 29 -8 16 -6 27 -16 24 -23 -3 -8 4 -12 19 -10 20 2
24 -2 23 -24 0 -21 -4 -26 -19 -22 -18 5 -18 6 -1 19 20 14 9 18 -14 4 -16
-10 2 -51 23 -51 21 0 39 28 33 51 -4 15 -3 19 4 12 6 -6 9 -19 7 -29 -2 -11
3 -25 12 -32 8 -8 9 -11 2 -7 -7 4 -28 1 -47 -5 -25 -8 -32 -15 -28 -27 6 -14
8 -14 19 1 8 11 14 13 19 7 3 -6 11 -11 16 -11 6 0 7 6 3 13 -6 8 -3 8 9 -1 9
-8 16 -17 15 -20 -2 -20 3 -25 12 -12 8 13 10 12 10 -4 0 -15 6 -17 30 -14 24
4 30 1 25 -9 -3 -8 -5 -20 -5 -26 -1 -7 -6 -5 -13 4 -7 8 -26 20 -44 26 -26 9
-33 9 -37 -3 -3 -9 -11 -12 -17 -8 -7 4 -9 3 -6 -4 4 -5 19 -9 33 -7 14 1 22
-1 17 -6 -5 -5 -21 -10 -36 -11 -25 -2 -26 -3 -9 -22 16 -18 16 -19 -3 -12
-16 6 -17 5 -8 -5 10 -10 16 -9 31 4 18 17 20 17 33 0 8 -9 9 -14 3 -10 -6 3
-25 -7 -42 -24 -19 -19 -36 -28 -44 -23 -7 4 -4 -2 7 -13 23 -24 35 -21 35 9
0 14 5 18 15 14 8 -3 19 2 24 12 8 13 9 6 6 -26 -3 -35 -1 -43 11 -38 20 8 44
-4 44 -21 0 -11 -3 -13 -13 -5 -8 7 -18 7 -27 2 -12 -8 -10 -10 8 -10 15 0 21
-4 16 -12 -5 -7 -3 -8 6 -3 8 5 11 3 8 -6 -3 -8 -11 -13 -17 -11 -9 2 -9 -3
-1 -18 6 -11 16 -20 22 -20 7 0 6 5 -2 15 -10 12 -10 15 2 15 8 0 15 7 15 15
0 8 -3 15 -7 15 -3 0 -6 12 -5 27 0 20 -7 31 -26 40 -21 10 -25 18 -21 38 2
14 9 25 16 25 6 0 2 8 -9 17 -16 13 -17 15 -2 10 22 -8 22 2 -1 19 -13 10 -14
13 -3 14 8 0 26 -10 40 -22 14 -13 20 -16 14 -8 -9 11 -8 19 1 31 10 15 13 14
23 -8 10 -21 10 -23 -3 -13 -17 15 -19 -1 -2 -18 16 -16 28 -15 28 2 0 7 11
16 25 18 13 3 22 1 19 -3 -3 -5 -11 -9 -19 -9 -7 0 -15 -7 -19 -15 -6 -17 -36
-20 -36 -4 0 8 -6 7 -17 -2 -11 -10 -14 -10 -9 -1 4 7 2 12 -6 12 -9 0 -15
-13 -16 -35 -2 -30 0 -35 19 -35 21 0 22 1 4 20 -10 11 -13 20 -7 20 7 0 12
-4 12 -10 0 -14 28 -12 32 2 3 9 6 9 12 0 3 -6 -1 -19 -11 -30 -10 -10 -19
-31 -21 -46 -3 -26 -1 -28 22 -24 14 3 23 1 20 -3 -3 -5 0 -9 5 -9 12 0 13 4
15 50 1 18 -4 30 -11 30 -7 0 -13 5 -13 11 0 5 4 7 10 4 6 -4 7 1 3 12 -3 10
-2 15 2 10 5 -4 17 1 27 10 18 16 18 16 12 0 -3 -9 -10 -17 -15 -17 -5 0 -9
-7 -9 -16 0 -13 3 -14 15 -4 8 6 19 9 25 5 5 -3 10 1 10 9 0 9 5 16 11 16 5 0
8 -4 4 -9 -3 -5 -1 -12 5 -16 5 -3 10 -12 10 -18 0 -8 -3 -8 -8 -2 -10 15 -54
17 -46 3 4 -6 3 -8 -3 -5 -6 4 -14 0 -17 -9 -9 -22 -8 -24 10 -24 11 0 13 -6
9 -19 -3 -11 0 -23 6 -27 8 -4 9 -3 5 4 -4 7 -2 12 3 12 6 0 11 -9 11 -21 0
-15 -5 -19 -15 -15 -20 7 -19 -4 3 -20 16 -13 16 -13 -1 -14 -11 0 -15 -4 -11
-12 5 -7 3 -8 -6 -3 -7 5 -10 20 -7 40 3 17 2 38 -3 45 -5 8 -8 -1 -8 -25 0
-20 -5 -42 -10 -47 -8 -8 -10 -1 -7 23 3 20 1 29 -4 21 -4 -7 -14 -11 -22 -9
-8 2 -11 2 -7 0 5 -3 3 -13 -3 -24 -5 -11 -6 -19 -2 -18 19 3 33 -2 33 -12 0
-6 -9 -8 -22 -4 -18 5 -20 4 -8 -4 12 -8 12 -11 1 -11 -11 0 -11 -3 -1 -15 8
-10 9 -15 2 -15 -6 0 -15 7 -20 16 -7 13 -13 14 -31 5 -12 -7 -19 -17 -15 -23
4 -5 9 -6 13 -1 7 10 26 11 37 1 4 -5 1 -8 -7 -8 -11 0 -11 -2 1 -10 8 -5 20
-10 25 -10 6 0 4 4 -4 9 -11 7 -9 10 9 16 12 4 18 10 12 14 -6 4 -3 15 9 30
11 13 22 21 26 17 3 -3 -1 -14 -10 -24 -10 -10 -14 -22 -10 -26 4 -4 1 -11 -7
-16 -13 -8 -12 -10 2 -10 20 0 34 19 30 43 -2 10 3 17 12 17 23 0 20 -26 -6
-50 -12 -11 -19 -20 -15 -20 4 0 3 -9 -3 -19 -7 -14 -7 -22 2 -27 7 -4 8 -3 4
4 -4 7 -2 12 3 12 6 0 11 -6 11 -12 1 -7 8 -1 16 15 8 15 12 33 8 39 -4 7 -3
8 5 4 6 -4 19 -2 28 6 9 7 14 8 10 2 -4 -7 0 -14 8 -18 8 -3 18 1 22 9 6 10
13 11 23 5 13 -8 12 -10 -3 -10 -10 0 -16 -4 -12 -10 3 -5 13 -7 23 -4 14 5
15 4 2 -5 -9 -6 -19 -6 -24 -1 -4 4 -15 6 -23 3 -8 -3 -19 0 -24 8 -7 11 -9
11 -9 -3 0 -10 -6 -18 -12 -18 -9 0 -8 -4 2 -10 13 -8 12 -10 -2 -10 -10 0
-18 -4 -18 -10 0 -11 51 9 62 25 5 6 8 6 8 -2 0 -6 -5 -15 -10 -18 -6 -4 -7
-11 -4 -17 5 -7 2 -8 -6 -3 -8 5 -11 3 -8 -6 7 -20 33 -23 51 -5 13 14 16 14
21 0 3 -8 2 -13 -3 -10 -5 3 -12 -1 -15 -10 -8 -21 -8 -24 5 -24 5 0 8 4 5 9
-4 5 3 7 14 4 11 -3 20 -9 20 -14 0 -5 -7 -6 -15 -3 -8 4 -15 1 -15 -5 0 -19
-16 -12 -29 12 -11 20 -11 20 -6 -8 5 -26 2 -23 -21 18 -27 46 -49 64 -38 30
5 -15 4 -16 -5 -3 -11 16 -64 23 -54 7 3 -5 14 -6 25 -4 16 5 19 2 15 -14 -3
-10 -1 -17 3 -14 5 3 11 -5 13 -17 l4 -23 2 23 c2 35 25 21 28 -17 2 -20 -1
-30 -7 -26 -6 4 -7 11 -4 17 5 7 2 8 -5 4 -7 -5 -10 -15 -7 -25 5 -13 3 -12
-8 2 -11 15 -22 17 -45 12 -17 -4 -31 -11 -31 -16 0 -6 4 -8 9 -5 5 3 12 -1
15 -10 9 -24 7 -36 -6 -28 -7 4 -8 3 -4 -4 6 -11 -13 -17 -37 -13 -5 1 -6 -3
-2 -9 3 -5 1 -10 -6 -10 -7 0 -9 -3 -6 -6 4 -4 13 -1 21 5 8 7 23 11 33 9 14
-4 10 -8 -17 -21 -22 -11 -26 -14 -10 -10 21 5 23 4 13 -9 -7 -8 -10 -18 -6
-21 3 -4 11 1 18 10 9 13 14 13 20 3 5 -9 4 -11 -3 -6 -7 4 -12 2 -12 -3 0 -6
5 -11 11 -11 5 0 7 -4 4 -10 -3 -5 1 -10 9 -10 14 0 15 9 7 63 0 5 -5 6 -10 2
-6 -3 -9 4 -8 15 1 12 8 20 19 20 11 0 15 -5 12 -15 -8 -19 0 -19 15 -2 8 11
6 18 -11 33 -12 10 -18 13 -14 7 4 -7 2 -13 -3 -13 -6 0 -11 6 -11 14 0 8 -3
21 -6 30 -4 10 -1 16 9 16 9 0 19 -9 22 -20 4 -11 11 -17 17 -14 7 5 9 1 5 -9
-3 -10 -3 -17 2 -17 4 0 13 -11 19 -25 11 -24 10 -25 -7 -15 -15 7 -20 6 -25
-6 -4 -9 -1 -23 5 -30 9 -12 9 -13 -3 -9 -12 5 -14 0 -10 -21 3 -17 1 -25 -6
-20 -6 4 -8 -2 -5 -14 3 -11 0 -20 -6 -20 -6 0 -11 4 -11 8 0 5 -8 19 -19 31
-18 20 -19 20 -24 2 -2 -10 -1 -25 4 -32 6 -10 9 -11 9 -1 0 6 4 12 9 12 5 0
8 -8 6 -18 -1 -9 -8 -16 -16 -14 -10 3 -10 0 1 -12 15 -19 21 -20 18 -5 -2 6
3 14 10 16 7 3 10 -1 7 -10 -3 -7 1 -19 8 -26 12 -9 15 -8 13 5 0 9 4 19 11
21 7 3 9 -3 6 -16 -3 -12 -1 -21 6 -21 5 0 8 6 5 13 -2 7 3 21 11 32 16 19 16
19 12 -7 -3 -19 0 -28 9 -28 7 0 11 6 8 14 -6 16 22 30 31 15 4 -5 10 -7 15
-4 5 3 11 1 15 -5 8 -13 -18 -13 -32 1 -7 7 -11 3 -10 -16 0 -23 3 -26 23 -22
21 4 22 2 12 -11 -11 -13 -10 -15 5 -9 10 4 20 7 22 7 2 0 1 9 -2 20 -3 11 0
20 6 20 6 0 11 -7 11 -15 0 -8 5 -15 10 -15 16 0 12 -22 -7 -36 -11 -8 -13
-13 -5 -14 6 0 12 -5 12 -11 0 -5 -4 -8 -9 -5 -14 9 -23 -26 -10 -38 9 -8 10
-7 4 3 -6 10 -2 12 16 6 19 -6 21 -5 12 5 -19 20 -5 42 19 29 11 -6 17 -13 14
-16 -9 -9 15 -34 25 -27 16 10 9 26 -8 20 -10 -4 -14 -4 -10 0 4 4 -1 16 -10
26 -21 23 -25 58 -6 51 16 -6 17 -23 2 -23 -5 0 -7 -5 -4 -11 4 -6 13 -8 21
-5 7 3 11 0 8 -7 -2 -7 5 -18 17 -26 19 -11 21 -11 16 4 -4 9 -3 14 3 10 6 -3
10 -15 10 -26 0 -16 3 -18 19 -9 20 10 41 -4 27 -17 -3 -4 -6 -1 -6 6 0 8 -6
9 -17 3 -10 -5 -23 -8 -28 -6 -6 3 -11 -5 -12 -17 -2 -16 1 -18 11 -10 17 14
66 10 66 -5 0 -7 7 -15 16 -18 14 -5 15 -4 5 8 -9 11 -8 15 5 20 23 9 54 7 54
-3 0 -5 -8 -7 -18 -4 -13 3 -18 -2 -18 -17 0 -17 3 -18 11 -8 23 29 71 4 57
-31 -8 -20 32 17 42 39 4 10 5 8 3 -5 -4 -24 27 -62 38 -46 3 6 0 14 -8 17 -7
2 -14 12 -14 21 0 14 2 14 12 -1 14 -18 30 -22 19 -5 -4 8 0 8 15 0 11 -7 21
-16 21 -22 0 -6 5 -7 10 -4 6 4 8 10 5 15 -3 4 1 10 8 13 10 3 12 -3 9 -23 -2
-15 1 -31 7 -34 6 -4 11 -2 11 4 0 6 4 9 9 6 5 -4 20 -2 33 3 18 7 25 6 25 -4
0 -7 -6 -11 -14 -8 -7 3 -16 -3 -20 -13 -3 -11 -13 -23 -20 -27 -7 -5 -11 -13
-8 -18 4 -5 11 -6 17 -3 6 4 23 8 37 10 40 3 41 4 41 12 0 5 -13 7 -30 4 -23
-3 -30 0 -30 12 0 8 6 14 13 12 55 -18 64 -16 61 10 -2 25 -2 25 17 8 22 -20
26 -32 4 -14 -10 8 -15 9 -15 2 0 -6 8 -16 18 -22 15 -10 15 -10 -3 -8 -12 2
-20 -3 -20 -12 0 -9 7 -14 20 -12 11 2 18 2 15 0 -3 -2 -14 -10 -24 -18 -11
-8 -17 -10 -13 -4 4 7 1 14 -7 17 -11 5 -14 -3 -11 -36 4 -43 14 -48 43 -24
12 9 11 12 -5 19 -17 7 -17 8 1 5 12 -1 20 -11 21 -24 1 -14 -3 -19 -12 -16
-7 3 -13 0 -13 -6 0 -10 14 -15 33 -12 5 1 6 -3 2 -9 -11 -18 5 -31 21 -16 15
16 19 30 6 22 -5 -3 -9 1 -9 9 0 13 3 12 18 -1 10 -9 16 -21 13 -25 -3 -5 0
-9 5 -9 6 0 11 5 11 10 0 6 5 10 10 10 6 0 10 -6 10 -14 0 -10 -13 -16 -37
-18 -20 -2 -39 -9 -41 -17 -3 -9 0 -11 8 -6 9 6 9 3 1 -14 -12 -22 -31 -29
-31 -11 0 6 4 10 8 10 10 0 9 36 -1 46 -4 4 -7 -5 -7 -19 0 -15 -4 -27 -10
-27 -5 0 -7 -6 -4 -14 4 -10 -1 -14 -15 -13 -12 1 -21 5 -21 9 0 4 -5 8 -10 8
-6 0 -9 -6 -8 -12 2 -8 -7 -13 -22 -13 -14 0 -28 -4 -32 -10 -5 -6 -8 -6 -8 1
0 14 -32 13 -42 -1 -4 -5 -8 -1 -8 10 0 16 -2 17 -9 6 -5 -8 -7 -19 -5 -25 3
-7 -12 -12 -38 -13 -55 -2 -150 -17 -164 -25 -6 -4 -33 -10 -60 -13 -50 -6
-111 -16 -129 -21 -5 -2 -39 -12 -75 -22 -36 -10 -72 -21 -80 -24 -13 -5 -108
-25 -150 -32 -8 -1 -23 -6 -33 -10 -10 -5 -31 -9 -47 -10 -17 0 -30 -4 -30 -7
0 -4 -7 -10 -16 -13 -9 -3 -12 -2 -9 4 4 7 -16 9 -54 8 -62 -3 -84 -22 -38
-31 17 -4 15 -5 -8 -5 -16 0 -33 -1 -37 -2 -5 -1 -11 -3 -15 -5 -5 -1 -16 -5
-26 -9 -9 -5 -26 -6 -37 -3 -11 3 -20 1 -20 -5 0 -5 -4 -6 -10 -3 -5 3 -10 2
-10 -4 0 -6 -7 -8 -15 -5 -8 3 -20 2 -27 -2 -12 -8 -31 -11 -98 -17 -14 -1
-28 -5 -31 -10 -3 -4 -50 -10 -104 -13 -64 -4 -116 -13 -149 -26 -28 -11 -67
-25 -86 -30 -63 -17 -105 -27 -130 -32 -14 -2 -53 -11 -87 -19 l-62 -15 -47
29 c-25 17 -62 36 -82 44 -21 7 -88 34 -151 60 -126 51 -201 66 -227 45 -44
-38 -73 -137 -89 -312 l-7 -68 -61 0 -62 0 3 87 c1 49 -1 108 -5 133 -8 45 -9
45 -58 53 -28 5 -74 11 -104 14 -30 3 -66 13 -80 24 -19 14 -52 20 -123 25
l-97 7 -26 38 -25 39 -78 0 c-69 0 -95 -6 -246 -61 -93 -33 -176 -57 -183 -55
-12 5 -14 34 -11 156 2 83 -1 150 -5 150 -4 0 -3 9 3 19 5 11 10 51 10 90 0
53 3 71 14 71 24 0 63 -39 94 -92 48 -86 55 -89 214 -104 86 -8 108 -2 135 39
29 46 63 160 63 212 0 26 6 50 15 59 14 14 27 76 75 356 34 196 22 474 -21
501 -8 5 -28 9 -46 9 -29 0 -33 4 -44 43 -15 59 -107 230 -129 242 -10 6 -37
31 -59 57 -62 70 -292 188 -367 188 -13 0 -38 9 -56 19 -49 28 -104 34 -204
21 -179 -24 -364 -99 -483 -197 -61 -50 -158 -190 -191 -275 -21 -54 -41 -89
-65 -109 -108 -95 -110 -282 -9 -694 123 -496 117 -477 139 -486 21 -9 314
-29 328 -22 4 2 7 31 7 63 0 32 5 62 10 65 7 4 10 -57 10 -174 0 -100 -2 -181
-3 -181 -2 0 -28 8 -58 19 -31 10 -78 22 -107 26 -29 4 -68 18 -87 31 -51 34
-160 34 -281 -2 -49 -15 -105 -30 -124 -34 -19 -5 -48 -13 -65 -19 -16 -6 -88
-25 -160 -41 l-130 -31 3 -57 c2 -31 1 -54 -2 -51 -13 13 -59 206 -62 261 -2
31 -10 82 -19 113 -15 51 -19 56 -38 50 -12 -4 -51 -11 -87 -16 -129 -18 -295
-50 -305 -60 -5 -5 -21 -9 -36 -9 -15 0 -31 -5 -35 -11 -3 -6 -15 -8 -26 -6
-11 3 -34 -1 -52 -8 -17 -8 -49 -19 -72 -25 -22 -5 -48 -18 -56 -27 -24 -28
-32 -120 -33 -370 -1 -128 -5 -236 -9 -240 -4 -5 -6 -1 -4 7 2 9 -6 16 -21 18
-14 2 -21 0 -17 -6 4 -6 2 -13 -4 -17 -5 -3 -10 -1 -10 5 0 6 -5 8 -11 5 -6
-4 -8 -9 -5 -12 7 -7 -33 -43 -46 -43 -5 0 -6 -4 -3 -10 3 -5 2 -10 -4 -10
-14 0 -7 -122 13 -220 8 -41 12 -78 9 -83 -2 -4 -1 -13 4 -20 6 -7 18 -38 27
-69 10 -31 24 -62 32 -69 8 -6 14 -17 14 -24 0 -7 7 -18 15 -25 8 -7 15 -24
15 -39 0 -14 3 -47 6 -72 10 -80 -28 -268 -56 -277 -6 -2 -19 -12 -28 -22 -24
-25 -58 -37 -133 -46 -90 -10 -326 -12 -374 -3 -77 14 -435 35 -580 33 -299
-2 -1189 -16 -1330 -20 -88 -2 -249 -4 -357 -4 l-198 -1 0 -1019 0 -1020 4720
0 4720 0 0 80 0 80 320 0 320 0 0 -80 0 -80 80 0 80 0 0 5120 0 5120 -5120 0
-5120 0 0 -1246z m2167 -579 c0 -8 -4 -12 -9 -9 -5 3 -6 10 -3 15 9 13 12 11
12 -6z m828 5 c-3 -5 -11 -10 -16 -10 -6 0 -7 5 -4 10 3 6 11 10 16 10 6 0 7
-4 4 -10z m95 6 c0 -2 -7 -7 -16 -10 -8 -3 -12 -2 -9 4 6 10 25 14 25 6z
m-583 -31 c0 -8 -4 -12 -9 -9 -5 3 -6 10 -3 15 9 13 12 11 12 -6z m-107 -11
c0 -2 -11 -3 -24 -2 -14 1 -23 5 -20 9 4 7 44 0 44 -7z m183 1 c-3 -9 -8 -14
-10 -11 -3 3 -2 9 2 15 9 16 15 13 8 -4z m561 7 c3 -5 -1 -9 -9 -9 -8 0 -12 4
-9 9 3 4 7 8 9 8 2 0 6 -4 9 -8z m-1110 -10 c3 -5 -1 -9 -9 -9 -8 0 -12 4 -9
9 3 4 7 8 9 8 2 0 6 -4 9 -8z m731 -24 c-3 -38 -24 -47 -43 -18 -7 11 -8 20
-3 20 6 0 14 -7 19 -16 7 -13 10 -10 15 15 8 41 15 40 12 -1z m85 22 c0 -5 -5
-10 -11 -10 -5 0 -7 5 -4 10 3 6 8 10 11 10 2 0 4 -4 4 -10z m43 -6 c-7 -18
-33 -26 -33 -10 0 16 7 23 24 23 8 0 12 -6 9 -13z m104 -6 c-3 -8 -6 -5 -6 6
-1 11 2 17 5 13 3 -3 4 -12 1 -19z m273 2 c0 -5 -2 -10 -4 -10 -3 0 -8 5 -11
10 -3 6 -1 10 4 10 6 0 11 -4 11 -10z m175 0 c-3 -5 -11 -10 -16 -10 -6 0 -7
5 -4 10 3 6 11 10 16 10 6 0 7 -4 4 -10z m-1360 -10 c3 -5 2 -10 -4 -10 -5 0
-13 5 -16 10 -3 6 -2 10 4 10 5 0 13 -4 16 -10z m265 -10 c0 -5 -4 -10 -10
-10 -5 0 -10 5 -10 10 0 6 5 10 10 10 6 0 10 -4 10 -10z m900 6 c0 -2 -8 -10
-17 -17 -16 -13 -17 -12 -4 4 13 16 21 21 21 13z m190 -32 c0 -22 -16 -17 -17
6 -1 11 2 18 8 15 5 -4 9 -13 9 -21z m230 12 c0 -8 -7 -16 -15 -20 -13 -4 -14
-2 -5 14 13 23 20 26 20 6z m-47 -19 c4 3 7 1 7 -5 0 -6 8 -13 18 -15 14 -4
13 -5 -4 -6 -11 0 -29 9 -40 21 -12 14 -13 18 -3 10 9 -6 19 -9 22 -5z m187 3
c0 -5 -2 -10 -4 -10 -3 0 -8 5 -11 10 -3 6 -1 10 4 10 6 0 11 -4 11 -10z
m-2023 -6 c-3 -3 -12 -4 -19 -1 -8 3 -5 6 6 6 11 1 17 -2 13 -5z m1799 -12 c1
-7 0 -8 -3 -2 -2 5 -9 8 -14 4 -5 -3 -9 0 -9 6 0 15 23 7 26 -8z m-2099 -14
c-3 -8 -6 -5 -6 6 -1 11 2 17 5 13 3 -3 4 -12 1 -19z m309 -11 c5 -1 9 -8 11
-15 1 -10 -4 -8 -18 4 -10 9 -19 22 -19 28 0 6 4 5 9 -2 4 -8 12 -14 17 -15z
m-115 -10 c-10 -9 -11 -8 -5 6 3 10 9 15 12 12 3 -3 0 -11 -7 -18z m-171 4 c0
-14 -29 -21 -36 -9 -4 6 -3 8 4 4 6 -3 13 -2 17 4 8 12 15 13 15 1z m2160 -7
c0 -8 -5 -12 -10 -9 -6 4 -8 11 -5 16 9 14 15 11 15 -7z m-2085 -4 c7 -11 42
-9 62 3 9 6 11 3 7 -8 -9 -21 -41 -38 -49 -25 -4 6 -10 8 -15 5 -4 -3 -11 3
-14 12 -5 12 -9 14 -14 6 -5 -8 -11 -7 -20 3 -11 12 -9 14 12 14 14 0 28 -5
31 -10z m2174 -17 c2 -1 -6 -1 -18 0 -11 1 -21 8 -21 15 0 12 3 12 18 1 9 -7
19 -14 21 -16z m56 -1 c-3 -3 1 -12 8 -21 11 -14 10 -14 -6 -2 -9 8 -15 16
-12 19 3 3 -1 12 -8 21 -11 14 -10 14 6 2 9 -8 15 -16 12 -19z m-2722 -17 c-3
-9 -8 -14 -10 -11 -3 3 -2 9 2 15 9 16 15 13 8 -4z m2947 5 c0 -5 -2 -10 -4
-10 -3 0 -8 5 -11 10 -3 6 -1 10 4 10 6 0 11 -4 11 -10z m-2752 -24 c-7 -8
-15 -12 -17 -11 -5 6 10 25 20 25 5 0 4 -6 -3 -14z m2866 0 c-4 -11 0 -13 18
-9 13 3 20 2 16 -2 -4 -4 -19 -9 -33 -11 -14 -1 -32 -7 -39 -13 -10 -9 -15 -7
-20 5 -8 21 2 33 13 15 7 -11 13 -9 27 8 22 25 25 26 18 7z m83 8 c-3 -3 -12
-4 -19 -1 -8 3 -5 6 6 6 11 1 17 -2 13 -5z m-3029 -29 c-3 -3 -9 2 -12 12 -6
14 -5 15 5 6 7 -7 10 -15 7 -18z m43 16 c7 11 9 10 9 -3 0 -10 -7 -18 -15 -18
-8 0 -15 8 -14 18 0 12 2 13 6 3 5 -11 7 -11 14 0z m-234 -17 c-3 -3 -12 -4
-19 -1 -8 3 -5 6 6 6 11 1 17 -2 13 -5z m3203 -8 c0 -2 -9 -6 -20 -9 -11 -3
-20 -1 -20 4 0 5 9 9 20 9 11 0 20 -2 20 -4z m130 -11 c7 -9 8 -15 2 -15 -5 0
-12 7 -16 15 -3 8 -4 15 -2 15 2 0 9 -7 16 -15z m77 -28 c15 6 16 5 3 -9 -8
-9 -17 -12 -18 -7 -2 5 -8 7 -13 3 -5 -3 -9 -1 -9 5 0 5 -3 18 -6 28 -5 14 -3
13 10 -4 11 -15 22 -20 33 -16z m-3505 1 c-2 -10 -6 -18 -7 -18 -1 0 -5 8 -7
18 -3 11 0 19 7 19 7 0 10 -8 7 -19z m3372 14 c2 -4 -4 -8 -14 -8 -10 0 -16 4
-14 8 3 4 9 8 14 8 5 0 11 -4 14 -8z m86 -22 c0 -5 -2 -10 -4 -10 -3 0 -8 5
-11 10 -3 6 -1 10 4 10 6 0 11 -4 11 -10z m-3606 -50 c4 0 4 6 0 13 -5 9 -4 9
6 0 16 -15 13 -18 -20 -27 -17 -5 -21 -4 -11 2 9 7 10 12 2 16 -6 4 -11 13
-11 19 0 7 7 4 14 -5 7 -10 16 -18 20 -18z m3626 20 c0 -5 -4 -10 -10 -10 -5
0 -10 5 -10 10 0 6 5 10 10 10 6 0 10 -4 10 -10z m60 -5 c0 -12 -19 -12 -23 0
-4 9 -1 12 9 8 7 -3 14 -7 14 -8z m31 -2 c13 -16 12 -17 -3 -4 -10 7 -18 15
-18 17 0 8 8 3 21 -13z m-3664 -13 c-1 -11 -7 -20 -14 -20 -14 0 -18 22 -6 33
12 13 22 7 20 -13z m3749 -17 c-7 -7 -26 7 -26 19 0 6 6 6 15 -2 9 -7 13 -15
11 -17z m-3923 2 c-3 -9 -8 -14 -10 -11 -3 3 -2 9 2 15 9 16 15 13 8 -4z
m4039 -17 c-7 -7 -12 -8 -12 -2 0 14 12 26 19 19 2 -3 -1 -11 -7 -17z m-4076
0 c4 -6 3 -8 -4 -4 -6 3 -13 -3 -17 -14 -4 -11 -10 -18 -15 -15 -5 3 -2 15 8
25 19 23 19 23 28 8z m4155 -32 c5 3 9 0 9 -6 0 -15 -23 -7 -26 8 -1 7 0 8 3
2 2 -5 9 -8 14 -4z m46 8 c-3 -4 1 -21 9 -38 11 -24 12 -27 1 -14 -8 10 -16
15 -19 12 -4 -3 -9 0 -14 7 -5 8 -3 10 6 4 10 -6 12 -4 7 7 -5 15 0 28 11 28
3 0 3 -3 -1 -6z m-4263 -25 c8 6 17 6 26 -1 12 -8 12 -9 -2 -4 -10 3 -20 1
-23 -5 -8 -12 -25 -2 -24 14 0 8 2 8 6 -1 3 -9 9 -10 17 -3z m4316 7 c0 -3 -4
-8 -10 -11 -5 -3 -10 -1 -10 4 0 6 5 11 10 11 6 0 10 -2 10 -4z m-4350 -16 c0
-5 -8 -10 -17 -10 -15 0 -16 2 -3 10 19 12 20 12 20 0z m4385 -40 c3 -5 1 -10
-4 -10 -6 0 -11 5 -11 10 0 6 2 10 4 10 3 0 8 -4 11 -10z m98 -20 c-3 -11 -7
-20 -8 -20 -1 0 -5 9 -8 20 -3 12 0 20 8 20 8 0 11 -8 8 -20z m-4688 -20 c3
-5 1 -10 -4 -10 -6 0 -11 5 -11 10 0 6 2 10 4 10 3 0 8 -4 11 -10z m4860 -29
c-3 -6 -11 -11 -16 -11 -5 0 -4 6 3 14 14 16 24 13 13 -3z m-4941 -27 c5 -14
4 -15 -8 -5 -11 9 -15 9 -19 -1 -4 -8 -6 -7 -6 5 -1 22 25 22 33 1z m4986 6
c0 -5 -2 -10 -4 -10 -3 0 -8 5 -11 10 -3 6 -1 10 4 10 6 0 11 -4 11 -10z
m-4915 -30 c3 -6 -1 -7 -9 -4 -18 7 -21 14 -7 14 6 0 13 -4 16 -10z m4920 0
c3 -5 1 -10 -4 -10 -6 0 -11 5 -11 10 0 6 2 10 4 10 3 0 8 -4 11 -10z m112
-16 c13 -4 20 -11 16 -20 -6 -16 -33 -19 -33 -3 0 5 6 7 13 3 9 -5 9 -4 0 6
-10 10 -15 11 -27 1 -12 -10 -12 -16 1 -42 8 -16 19 -27 24 -24 5 4 9 -1 9 -9
0 -22 -13 -26 -30 -8 -8 9 -14 18 -12 19 1 2 -1 10 -4 18 -5 11 -10 13 -19 5
-9 -8 -14 -6 -19 5 -3 8 0 15 7 15 7 0 19 9 27 20 16 22 16 22 47 14z m60 -10
c-8 -8 16 -33 25 -27 4 2 5 -3 2 -11 -7 -18 -35 -30 -43 -18 -3 5 -14 8 -23 6
-10 -1 -18 2 -18 8 0 7 14 8 36 5 31 -5 34 -4 23 9 -7 8 -19 12 -27 9 -12 -4
-13 -3 -2 10 7 8 17 15 23 15 6 0 8 -3 4 -6z m-5327 -16 c0 -4 -4 -8 -9 -8 -6
0 -12 4 -15 8 -3 5 1 9 9 9 8 0 15 -4 15 -9z m5386 -54 c-7 -27 1 -31 18 -10
6 8 22 17 36 21 23 7 23 7 7 -9 -9 -10 -21 -14 -27 -11 -6 4 -9 1 -8 -7 2 -9
-9 -13 -35 -13 -21 0 -41 -5 -45 -11 -10 -14 -46 6 -50 29 -4 22 15 23 20 0 3
-16 4 -16 20 0 19 20 29 22 26 6 -2 -6 2 -13 8 -16 7 -2 11 6 10 19 -3 29 3
40 16 32 5 -3 7 -17 4 -30z m189 -23 c-6 -5 -25 10 -25 20 0 5 6 4 14 -3 8 -7
12 -15 11 -17z m-130 -11 c-3 -5 -10 -10 -16 -10 -5 0 -9 5 -9 10 0 6 7 10 16
10 8 0 12 -4 9 -10z m65 -5 c4 3 6 -5 2 -17 -4 -16 -2 -19 8 -13 8 5 11 4 6
-3 -3 -6 -2 -13 3 -16 5 -4 14 6 19 21 6 16 11 21 11 13 1 -21 -15 -43 -33
-46 -19 -3 -22 1 -30 46 -3 19 -3 29 0 22 3 -6 9 -10 14 -7z m-127 -13 c3 7 6
3 6 -9 1 -26 -20 -31 -38 -10 -14 17 -2 30 15 16 8 -7 14 -6 17 3z m-5343 -26
c0 -3 -4 -8 -10 -11 -5 -3 -10 -1 -10 4 0 6 5 11 10 11 6 0 10 -2 10 -4z
m5685 -34 c-3 -3 -11 0 -18 7 -9 10 -8 11 6 5 10 -3 15 -9 12 -12z m80 -22
c-3 -5 -12 -10 -18 -10 -7 0 -6 4 3 10 19 12 23 12 15 0z m-128 -42 c-3 -8 -6
-5 -6 6 -1 11 2 17 5 13 3 -3 4 -12 1 -19z m110 -4 c15 5 15 3 -2 -10 -20 -16
-20 -16 3 -11 13 3 20 1 16 -5 -4 -6 0 -14 7 -19 7 -4 11 -11 8 -14 -4 -3 -20
7 -37 23 -31 29 -53 32 -30 5 6 -7 8 -17 4 -20 -4 -4 -11 -1 -16 7 -8 13 -8
23 -1 59 1 2 8 -2 16 -9 8 -7 23 -9 32 -6z m57 -15 c-3 -5 -10 -7 -15 -3 -5 3
-7 10 -3 15 3 5 10 7 15 3 5 -3 7 -10 3 -15z m-196 -5 c-9 -10 -21 -13 -29 -8
-9 5 -8 9 7 15 31 12 39 10 22 -7z m262 -8 c0 -3 -4 -8 -10 -11 -5 -3 -10 -1
-10 4 0 6 5 11 10 11 6 0 10 -2 10 -4z m-33 -21 c0 -8 -4 -12 -9 -9 -5 3 -6
10 -3 15 9 13 12 11 12 -6z m45 -2 c-6 -2 -9 -10 -6 -15 4 -7 2 -8 -4 -4 -6 3
-16 -3 -22 -14 -9 -17 -14 -18 -30 -8 -10 7 -17 14 -15 17 3 2 11 -2 20 -9 9
-8 15 -8 15 -2 0 15 29 42 43 41 8 0 8 -2 -1 -6z m-6 -49 c-9 -8 -14 -19 -12
-23 3 -4 -1 -8 -9 -8 -8 0 -15 3 -15 5 0 10 33 42 42 42 5 0 2 -7 -6 -16z
m-48 -22 c2 -7 -1 -12 -8 -12 -6 0 -9 4 -6 9 4 5 1 12 -4 14 -6 3 -5 4 2 3 6
-1 14 -8 16 -14z m172 -28 c0 -3 -5 -2 -12 2 -7 5 -9 1 -6 -13 5 -17 1 -19
-21 -14 -19 3 -21 6 -8 9 9 2 17 10 17 19 0 8 -6 13 -13 10 -8 -3 -14 1 -14 8
0 11 6 11 29 -1 15 -8 28 -17 28 -20z m101 18 c-7 -2 -18 1 -23 6 -8 8 -4 9
13 5 13 -4 18 -8 10 -11z m-194 -22 c-4 -14 0 -20 11 -20 15 -1 15 -2 2 -9
-24 -14 -68 -24 -50 -12 8 5 12 13 8 16 -3 3 -13 -2 -22 -11 -20 -19 -34 -11
-18 9 7 8 8 18 4 23 -4 4 0 3 10 -4 11 -9 18 -10 23 -2 3 6 11 8 16 5 5 -4 9
1 9 9 0 9 3 16 6 16 4 0 4 -9 1 -20z m143 -42 c0 -5 -5 -8 -11 -8 -5 0 -8 4
-4 9 3 5 1 12 -5 16 -5 3 -10 11 -10 18 0 12 29 -23 30 -35z m-36 16 c3 -8 2
-12 -4 -9 -6 3 -10 10 -10 16 0 14 7 11 14 -7z m142 -36 c-9 -12 -16 -19 -16
-15 0 11 24 47 28 42 2 -2 -3 -14 -12 -27z m-46 7 c7 -9 10 -18 6 -22 -3 -3
-6 -1 -6 6 0 6 -10 16 -22 21 -16 6 -18 9 -7 9 9 1 22 -6 29 -14z m15 -64 c-4
-3 -10 1 -14 8 -7 11 -9 11 -14 0 -3 -8 -4 -4 -4 8 1 21 2 21 19 6 10 -9 16
-19 13 -22z m68 14 c-3 -9 -8 -14 -10 -11 -3 3 -2 9 2 15 9 16 15 13 8 -4z
m82 -27 c5 4 5 1 1 -6 -6 -10 -11 -10 -22 -1 -8 6 -14 14 -14 16 0 3 6 0 13
-6 8 -6 18 -7 22 -3z m-265 -13 c11 -13 8 -15 -21 -15 -31 0 -32 1 -13 15 10
8 20 15 20 15 1 0 7 -7 14 -15z m240 -9 c0 -3 -4 -8 -10 -11 -5 -3 -10 -1 -10
4 0 6 5 11 10 11 6 0 10 -2 10 -4z m-60 -21 c-7 -8 -16 -12 -21 -9 -5 3 -9 0
-9 -5 0 -6 -5 -11 -11 -11 -8 0 -8 5 1 15 7 8 16 13 20 10 5 -3 11 -1 15 5 3
5 9 10 12 10 3 0 0 -7 -7 -15z m-60 -29 c0 -3 -7 -6 -15 -6 -9 0 -15 9 -15 21
0 18 2 19 15 5 8 -8 15 -17 15 -20z m327 12 c2 -17 0 -19 -7 -8 -5 8 -6 18 -4
22 8 12 10 10 11 -14z m-167 2 c0 -5 -5 -10 -11 -10 -5 0 -7 5 -4 10 3 6 8 10
11 10 2 0 4 -4 4 -10z m78 -15 c-3 -3 -9 2 -12 12 -6 14 -5 15 5 6 7 -7 10
-15 7 -18z m-170 -10 c0 -13 -6 -23 -12 -22 -6 1 -10 -3 -9 -10 2 -7 -4 -10
-12 -7 -8 4 -12 11 -8 17 3 6 1 7 -6 3 -6 -4 -9 -12 -6 -17 4 -5 3 -14 -1 -20
-4 -8 -9 -7 -14 2 -11 17 18 59 36 52 7 -3 17 2 20 11 9 22 12 20 12 -9z m19
-7 c-3 -8 -6 -5 -6 6 -1 11 2 17 5 13 3 -3 4 -12 1 -19z m43 -19 c0 -5 -4 -8
-8 -5 -4 2 -14 1 -21 -3 -10 -6 -9 -12 4 -25 12 -12 13 -16 3 -16 -7 -1 -1 -7
13 -15 21 -11 32 -12 58 -2 17 6 31 17 31 24 0 7 5 13 10 13 6 0 9 -5 8 -12
-5 -22 -22 -36 -38 -30 -12 4 -13 2 -3 -8 9 -10 10 -17 2 -27 -14 -16 -5 -17
22 -2 11 5 17 14 14 19 -3 5 -1 11 5 15 5 3 10 -1 10 -9 0 -23 -4 -31 -12 -28
-5 1 -8 -3 -8 -9 0 -6 -10 -9 -22 -7 -15 2 -22 9 -20 20 1 9 -3 20 -9 24 -8 4
-9 3 -5 -4 14 -22 -29 -12 -56 13 -18 16 -25 31 -21 42 5 12 2 15 -10 10 -27
-10 -20 1 11 17 33 18 42 19 42 5z m65 2 c3 -5 2 -12 -3 -15 -5 -3 -9 1 -9 9
0 17 3 19 12 6z m-35 -25 c0 -2 -7 -7 -16 -10 -8 -3 -12 -2 -9 4 6 10 25 14
25 6z m-99 -38 c11 -8 10 -9 -3 -5 -9 3 -19 1 -22 -6 -2 -7 -5 2 -5 18 0 21 2
26 8 16 5 -7 15 -18 22 -23z m104 12 c3 -5 1 -10 -4 -10 -6 0 -11 5 -11 10 0
6 2 10 4 10 3 0 8 -4 11 -10z m145 -20 c-6 -11 -15 -20 -20 -20 -6 0 -2 9 7
20 10 11 19 20 21 20 1 0 -2 -9 -8 -20z m-46 -6 c3 -8 2 -12 -4 -9 -6 3 -10
10 -10 16 0 14 7 11 14 -7z m192 -64 c-2 -17 1 -30 5 -30 5 0 9 -10 8 -22 0
-22 -1 -22 -11 2 -13 32 -19 92 -7 85 5 -3 7 -19 5 -35z m-31 20 c-3 -5 -13
-10 -21 -10 -10 0 -12 -5 -7 -12 9 -16 14 -102 5 -93 -4 4 -7 19 -7 33 0 19
-5 27 -17 27 -9 0 -20 4 -25 8 -4 5 -3 8 2 7 24 -5 37 1 31 15 -4 10 2 19 17
25 29 12 29 12 22 0z m-55 -10 c0 -5 -5 -10 -11 -10 -5 0 -7 5 -4 10 3 6 8 10
11 10 2 0 4 -4 4 -10z m210 -14 c0 -2 -7 -7 -16 -10 -8 -3 -12 -2 -9 4 6 10
25 14 25 6z m-293 -58 c-3 -8 -6 -5 -6 6 -1 11 2 17 5 13 3 -3 4 -12 1 -19z
m157 6 c3 -8 2 -12 -4 -9 -6 3 -10 10 -10 16 0 14 7 11 14 -7z m99 -14 c-7
-27 -13 -25 -11 4 1 14 5 23 9 20 4 -2 5 -13 2 -24z m-196 14 c-3 -3 -12 -4
-19 -1 -8 3 -5 6 6 6 11 1 17 -2 13 -5z m204 -91 c13 -16 12 -17 -3 -4 -10 7
-18 15 -18 17 0 8 8 3 21 -13z m63 -29 c3 -8 2 -12 -4 -9 -6 3 -10 10 -10 16
0 14 7 11 14 -7z m-19 -24 c3 -6 -1 -7 -9 -4 -18 7 -21 14 -7 14 6 0 13 -4 16
-10z m54 -41 c-7 -13 -7 -19 -1 -15 6 3 13 3 16 -2 2 -4 -3 -13 -13 -19 -16
-10 -18 -8 -16 20 3 39 3 37 15 37 7 0 7 -7 -1 -21z m-38 -3 c5 3 9 0 9 -5 0
-6 -10 -9 -22 -7 -13 3 -25 5 -28 5 -3 1 2 6 10 11 10 6 16 6 18 0 2 -6 8 -8
13 -4z m144 4 c3 -6 -1 -7 -9 -4 -18 7 -21 14 -7 14 6 0 13 -4 16 -10z m-185
-60 c30 -32 28 -51 -2 -23 -10 9 -18 12 -18 8 0 -5 -6 0 -14 10 -13 18 -13 35
1 35 3 0 17 -13 33 -30z m125 0 c3 -5 1 -10 -4 -10 -6 0 -11 5 -11 10 0 6 2
10 4 10 3 0 8 -4 11 -10z m157 -55 c0 -5 4 -18 9 -27 7 -14 6 -16 -6 -12 -9 4
-13 9 -10 12 3 3 -3 14 -12 25 -17 18 -17 19 0 16 10 -2 18 -8 19 -14z m-217
-5 c3 -5 1 -10 -4 -10 -6 0 -11 5 -11 10 0 6 2 10 4 10 3 0 8 -4 11 -10z m191
-47 c-10 -10 -19 5 -10 18 6 11 8 11 12 0 2 -7 1 -15 -2 -18z m42 -31 c-25
-32 -36 -41 -42 -35 -3 4 -6 1 -6 -5 0 -7 -8 -12 -17 -11 -10 0 -13 3 -6 5 7
3 10 11 7 18 -3 8 3 12 18 12 12 -1 23 4 23 9 1 18 16 35 26 29 6 -3 5 -12 -3
-22z m92 8 c0 -5 -2 -10 -4 -10 -3 0 -8 5 -11 10 -3 6 -1 10 4 10 6 0 11 -4
11 -10z m-217 -31 c-4 -15 -8 -17 -14 -8 -8 14 -3 29 11 29 4 0 6 -9 3 -21z
m337 -155 c0 -8 -5 -12 -10 -9 -6 4 -8 11 -5 16 9 14 15 11 15 -7z m-33 -41
c-16 -16 -37 -10 -37 10 0 8 3 7 9 -2 9 -14 31 -7 31 10 0 6 -4 7 -10 4 -6 -4
-7 1 -3 11 5 15 7 15 16 -1 6 -12 5 -21 -6 -32z m113 -32 c0 -4 -6 -16 -14
-26 -8 -11 -12 -25 -9 -32 5 -14 -46 -38 -56 -27 -3 4 0 9 7 11 6 3 9 10 6 16
-5 8 -2 8 7 0 16 -16 29 -17 29 -2 0 5 -3 8 -7 6 -13 -8 -32 19 -23 32 5 9 9
8 14 -5 6 -15 9 -16 16 -4 5 8 5 21 -1 31 -7 14 -5 16 11 12 11 -3 20 -8 20
-12z m60 -9 c0 -15 -2 -15 -10 -2 -13 20 -13 33 0 25 6 -3 10 -14 10 -23z m-6
-44 c-4 -7 -12 -2 -20 13 -19 35 -17 42 6 19 12 -12 18 -26 14 -32z m-31 -7
c-4 -16 -8 -17 -18 -8 -9 8 -10 16 -3 24 14 18 27 7 21 -16z m40 -25 c-19 -25
-25 -25 -29 -1 -1 7 4 11 11 9 7 -3 16 -1 20 5 3 6 8 11 11 11 3 0 -3 -11 -13
-24z m111 12 c-3 -4 -9 -8 -15 -8 -5 0 -9 4 -9 8 0 5 7 9 15 9 8 0 12 -4 9 -9z
m-90 -23 c-4 -8 -11 -15 -16 -15 -6 0 -5 6 2 15 7 8 14 15 16 15 2 0 1 -7 -2
-15z m49 -2 c-5 -13 -2 -15 18 -10 21 5 22 5 7 -7 -10 -7 -17 -15 -15 -17 1
-2 -5 3 -14 11 -12 10 -13 19 -7 28 14 17 19 15 11 -5z m77 -75 c0 -6 -6 -5
-15 2 -8 7 -15 14 -15 16 0 2 7 1 15 -2 8 -4 15 -11 15 -16z m27 7 c0 -8 -4
-12 -9 -9 -4 3 -8 9 -8 15 0 5 4 9 8 9 5 0 9 -7 9 -15z m-10 -44 c0 -11 -5
-17 -9 -15 -11 7 -10 34 1 34 6 0 9 -9 8 -19z m-33 -6 c3 -8 0 -14 -7 -12 -7
1 -11 -4 -9 -11 1 -8 -2 -11 -8 -7 -7 4 -7 12 0 26 13 23 16 24 24 4z m80 -61
c2 -16 7 -37 11 -47 6 -14 4 -16 -11 -10 -14 5 -16 3 -10 -13 6 -16 5 -17 -6
-4 -7 8 -20 20 -28 27 -13 12 -13 13 0 12 33 -3 37 1 33 38 -5 43 5 41 11 -3z
m70 10 c3 -8 2 -12 -4 -9 -6 3 -10 10 -10 16 0 14 7 11 14 -7z m-111 -7 c3 -8
0 -14 -7 -14 -7 0 -13 6 -13 14 0 7 4 13 8 13 4 0 9 -6 12 -13z m84 -23 c-3
-3 -12 -4 -19 -1 -8 3 -5 6 6 6 11 1 17 -2 13 -5z m113 -106 c0 -7 -4 -7 -12
0 -8 5 -22 6 -33 1 -15 -6 -16 -8 -4 -8 30 -2 39 -24 20 -50 -13 -17 -20 -20
-26 -12 -4 7 -4 15 -1 18 3 4 6 0 6 -7 0 -9 5 -7 14 5 18 24 11 38 -15 30 -14
-5 -19 -2 -19 14 0 13 8 21 23 23 28 5 47 -1 47 -14z m5 -88 c-3 -5 -1 -10 4
-10 17 0 13 -26 -6 -41 -11 -10 -14 -10 -9 -1 4 6 2 12 -3 12 -6 0 -11 5 -11
11 0 6 7 8 16 5 9 -3 12 -2 8 5 -3 6 -17 8 -30 5 -14 -4 -24 -2 -24 4 0 6 3 9
8 7 4 -3 16 -1 27 4 27 10 27 10 20 -1z m50 -10 c-3 -5 -12 -10 -18 -10 -7 0
-6 4 3 10 19 12 23 12 15 0z m55 0 c0 -5 -5 -10 -11 -10 -5 0 -7 5 -4 10 3 6
8 10 11 10 2 0 4 -4 4 -10z m35 -30 c3 -5 1 -10 -4 -10 -6 0 -11 5 -11 10 0 6
2 10 4 10 3 0 8 -4 11 -10z m-110 -30 c3 -5 1 -10 -4 -10 -6 0 -11 5 -11 10 0
6 2 10 4 10 3 0 8 -4 11 -10z m0 -24 c8 4 15 1 15 -4 0 -6 -12 -9 -26 -6 -21
4 -25 2 -20 -11 3 -9 2 -13 -4 -10 -11 7 -13 38 -3 49 4 3 11 0 15 -8 5 -8 15
-13 23 -10z m110 4 c3 -5 -1 -10 -10 -10 -9 0 -13 5 -10 10 3 6 8 10 10 10 2
0 7 -4 10 -10z m6 -37 c13 -15 12 -15 -8 -4 -24 12 -29 21 -14 21 5 0 15 -7
22 -17z m99 3 c0 -2 -7 -7 -16 -10 -8 -3 -12 -2 -9 4 6 10 25 14 25 6z m74
-115 c4 -5 -3 -7 -14 -4 -23 6 -26 13 -6 13 8 0 17 -4 20 -9z m6 -31 c0 -5 -5
-10 -11 -10 -5 0 -7 5 -4 10 3 6 8 10 11 10 2 0 4 -4 4 -10z m-142 -36 c-4 -3
-12 5 -18 18 -12 22 -12 22 6 6 10 -10 15 -20 12 -24z m162 2 c0 -2 -8 -10
-17 -17 -16 -13 -17 -12 -4 4 13 16 21 21 21 13z m-45 -27 c11 -16 1 -19 -13
-3 -7 8 -8 14 -3 14 5 0 13 -5 16 -11z m51 -45 c18 -14 18 -14 -6 -3 -31 14
-36 19 -24 19 6 0 19 -7 30 -16z m164 -2 c0 -4 -10 -9 -22 -9 -18 -2 -20 0 -8
7 18 12 30 13 30 2z m-262 -26 c1 -15 -1 -17 -7 -7 -7 11 -9 11 -14 0 -3 -8
-5 -5 -4 7 1 27 23 27 25 0z m185 -51 c-3 -9 -8 -14 -10 -11 -3 3 -2 9 2 15 9
16 15 13 8 -4z m87 -55 c0 -5 -5 -10 -11 -10 -5 0 -7 5 -4 10 3 6 8 10 11 10
2 0 4 -4 4 -10z m54 -36 c9 -3 16 -11 16 -16 0 -6 -6 -5 -15 2 -8 6 -20 8 -26
4 -8 -4 -9 -3 -5 4 8 14 9 14 30 6z m-63 -17 c-6 -8 -8 -17 -4 -20 3 -4 12 -2
20 4 7 6 13 7 13 3 0 -5 -9 -15 -21 -22 -12 -8 -18 -9 -15 -3 4 5 2 13 -4 16
-10 6 4 35 17 35 3 0 0 -6 -6 -13z m-26 -27 c3 -6 -1 -7 -9 -4 -18 7 -21 14
-7 14 6 0 13 -4 16 -10z m175 -41 c0 -5 -4 -7 -10 -4 -5 3 -10 -2 -10 -11 0
-10 -3 -15 -6 -11 -9 9 3 37 16 37 5 0 10 -5 10 -11z m-230 -59 c0 -5 -2 -10
-4 -10 -3 0 -8 5 -11 10 -3 6 -1 10 4 10 6 0 11 -4 11 -10z m334 -56 c3 -8 2
-12 -4 -9 -6 3 -10 10 -10 16 0 14 7 11 14 -7z m-183 -56 c6 -13 8 -20 4 -16
-5 4 -15 2 -23 -5 -13 -10 -14 -9 -4 9 6 12 8 24 5 28 -3 3 -3 6 0 6 3 0 12
-10 18 -22z m197 -43 c-3 -3 -9 2 -12 12 -6 14 -5 15 5 6 7 -7 10 -15 7 -18z
m-81 -5 c-3 -13 0 -20 10 -20 13 0 13 -2 -1 -15 -8 -8 -17 -15 -20 -15 -3 0
-3 7 0 15 4 8 1 15 -5 15 -6 0 -11 7 -11 16 0 8 5 12 10 9 6 -3 10 -1 10 4 0
6 3 11 6 11 4 0 4 -9 1 -20z m118 -19 c-3 -6 -11 -8 -17 -5 -6 4 -5 9 3 15 16
10 23 4 14 -10z m-55 -27 c0 -8 -19 -13 -24 -6 -3 5 1 9 9 9 8 0 15 -2 15 -3z
m50 -21 c0 -3 -9 -3 -20 0 -14 3 -25 -1 -33 -13 -8 -14 -15 -16 -24 -8 -10 8
-13 6 -13 -5 0 -8 6 -17 13 -20 6 -3 2 -4 -10 -4 -18 1 -22 6 -17 20 4 14 3
17 -6 12 -9 -6 -11 -4 -5 5 5 9 1 10 -16 6 -19 -6 -20 -5 -8 3 10 7 28 7 47 2
22 -7 34 -6 42 4 10 12 50 10 50 -2z m50 -15 c0 -11 -12 -10 -30 2 -12 7 -10
9 8 7 12 0 22 -5 22 -9z m-193 -40 c-3 -8 -6 -5 -6 6 -1 11 2 17 5 13 3 -3 4
-12 1 -19z m126 7 c4 -8 3 -16 -1 -19 -4 -3 -9 4 -9 15 -2 23 3 25 10 4z
m-148 -56 c-10 -15 -25 -10 -19 6 4 8 10 12 15 9 5 -3 7 -10 4 -15z m151 -21
c4 -7 4 -10 -1 -6 -4 4 -15 2 -24 -5 -14 -11 -14 -10 -2 6 16 20 18 21 27 5z
m-65 -21 c-10 -9 -11 -8 -5 6 3 10 9 15 12 12 3 -3 0 -11 -7 -18z m76 -43 c-3
-3 -12 -4 -19 -1 -8 3 -5 6 6 6 11 1 17 -2 13 -5z m-57 -170 c0 -8 -8 -14 -17
-14 -14 0 -15 2 -4 9 8 5 10 14 6 21 -5 9 -4 11 3 6 7 -4 12 -14 12 -22z m65
16 c3 -5 1 -10 -4 -10 -6 0 -11 5 -11 10 0 6 2 10 4 10 3 0 8 -4 11 -10z
m-101 -39 c6 -9 -31 -57 -39 -49 -3 2 4 14 15 25 14 15 16 23 7 26 -9 4 -9 6
0 6 6 1 14 -3 17 -8z m84 -35 c-7 -8 -15 -12 -17 -11 -5 6 10 25 20 25 5 0 4
-6 -3 -14z m-28 -17 c0 -6 -4 -8 -9 -4 -5 3 -12 1 -16 -5 -8 -14 -22 -13 -28
3 -3 7 6 13 24 14 16 1 29 -2 29 -8z m-89 -30 c9 -17 8 -20 -3 -17 -7 3 -18
-2 -25 -11 -10 -13 -10 -9 -1 17 7 17 13 32 15 32 1 0 7 -10 14 -21z m382
-192 c-3 -5 -11 -6 -18 -3 -7 2 -17 0 -23 -6 -6 -6 -12 -6 -17 3 -5 7 -4 10 3
5 6 -3 13 -3 16 2 2 4 14 8 25 8 11 0 17 -4 14 -9z m67 -36 c7 -14 7 -22 0
-26 -6 -4 -10 -3 -9 2 4 20 -2 32 -18 36 -17 4 -17 5 -1 6 10 0 22 -8 28 -18z
m191 -48 c11 -15 11 -16 -1 -6 -10 9 -17 10 -27 2 -13 -12 -19 2 -6 14 10 11
20 8 34 -10z m162 -20 c-4 -10 -9 -11 -19 -2 -18 15 -18 15 5 15 11 0 17 -5
14 -13z m38 -30 c13 -16 12 -17 -3 -4 -10 7 -18 15 -18 17 0 8 8 3 21 -13z
m56 2 c0 -8 -4 -12 -9 -9 -5 3 -6 10 -3 15 9 13 12 11 12 -6z m-90 -7 c-2 -7
3 -22 12 -33 14 -17 14 -18 0 -8 -12 10 -18 10 -29 0 -11 -9 -10 -7 0 7 14 18
13 19 -5 12 -20 -7 -20 -7 0 13 24 24 28 25 22 9z m119 -39 c19 -22 19 -22 -3
-8 -13 8 -23 17 -23 21 0 12 6 9 26 -13z m-142 -30 c-2 -4 1 -9 8 -11 7 -3 8
-7 2 -11 -5 -3 -15 2 -21 12 -9 14 -8 18 3 18 7 0 11 -4 8 -8z m140 0 c3 -3
-4 -5 -14 -6 -11 -1 -20 2 -20 7 0 8 25 8 34 -1z m-44 -19 c0 -12 -7 -20 -16
-20 -13 0 -14 -3 -5 -13 8 -10 7 -14 -4 -14 -8 0 -12 4 -9 9 3 4 -1 8 -8 9 -7
0 -3 5 10 11 12 6 22 17 22 25 0 7 2 13 5 13 3 0 5 -9 5 -20z m40 -4 c0 -2 -7
-7 -16 -10 -8 -3 -12 -2 -9 4 6 10 25 14 25 6z m90 -20 c0 -2 -8 -10 -17 -17
-16 -13 -17 -12 -4 4 13 16 21 21 21 13z m-54 -86 c27 9 28 9 10 -5 -11 -8
-27 -15 -35 -15 -14 0 -14 -1 -1 -10 8 -5 10 -10 4 -10 -6 0 -17 7 -24 15 -9
11 -17 12 -31 4 -11 -5 -19 -6 -19 0 0 12 29 23 43 14 7 -4 8 0 4 13 -7 18 -6
18 7 1 11 -14 19 -16 42 -7z m-111 -10 c-1 -11 -5 -23 -10 -27 -4 -5 -5 -2 -1
5 4 7 1 12 -8 12 -9 0 -16 7 -16 15 0 8 8 15 18 15 12 0 18 -7 17 -20z m-2835
-1509 c0 -64 -1 -68 -22 -67 -51 3 -43 136 8 136 11 0 14 -17 14 -69z"/>
<path d="M2240 8355 c0 -25 17 -37 37 -26 11 5 24 7 28 3 5 -4 5 -1 1 6 -5 8
-13 9 -24 3 -11 -6 -20 -4 -29 7 -7 10 -12 13 -13 7z"/>
<path d="M2910 8350 c-8 -5 -15 -15 -15 -21 0 -7 -15 -17 -32 -21 -18 -5 -33
-13 -33 -20 0 -7 4 -7 14 1 11 10 18 8 33 -8 14 -15 22 -17 33 -10 12 9 12 10
-2 5 -10 -3 -18 -1 -18 4 0 6 7 10 15 10 8 0 15 4 15 10 0 5 -8 6 -17 3 -15
-6 -16 -4 -6 9 7 8 10 18 6 21 -3 4 -1 7 5 7 5 0 13 -6 15 -12 4 -10 6 -10 6
0 1 8 6 10 14 6 8 -5 8 -2 -2 9 -7 9 -14 17 -15 17 0 0 -8 -5 -16 -10z"/>
<path d="M2810 8320 c0 -5 5 -10 10 -10 6 0 10 5 10 10 0 6 -4 10 -10 10 -5 0
-10 -4 -10 -10z"/>
<path d="M3086 8309 c-11 -17 -14 -18 -19 -4 -4 8 -12 15 -18 15 -8 0 -6 -7 4
-18 10 -10 14 -22 10 -26 -4 -4 0 -4 10 0 9 3 17 12 17 19 0 7 6 15 13 18 15
6 40 -6 37 -17 -1 -4 0 -12 2 -18 3 -9 6 -9 12 0 4 7 2 12 -4 12 -7 0 -8 6 -1
18 9 16 6 19 -19 20 -19 0 -35 -7 -44 -19z"/>
<path d="M2053 8303 c-4 -10 -11 -21 -17 -25 -7 -5 -7 -8 2 -8 7 0 10 -5 6
-12 -4 -7 -3 -8 4 -4 7 4 12 15 12 24 0 15 2 15 10 2 8 -13 10 -12 10 3 0 9
-6 17 -12 17 -9 0 -8 4 2 10 10 7 11 10 2 10 -7 0 -16 -8 -19 -17z"/>
<path d="M2387 8313 c-11 -11 -8 -20 7 -20 8 0 12 6 9 14 -6 15 -7 15 -16 6z"/>
<path d="M2267 8295 c3 -8 9 -12 14 -9 12 7 11 11 -5 17 -10 4 -13 1 -9 -8z"/>
<path d="M1990 8289 c0 -5 -4 -7 -10 -4 -5 3 -10 1 -10 -4 0 -6 5 -11 11 -11
5 0 7 -5 3 -12 -4 -7 -3 -8 5 -4 6 4 9 12 6 17 -4 5 1 9 10 9 9 0 13 5 10 10
-8 13 -25 13 -25 -1z"/>
<path d="M2770 8289 c0 -6 -7 -9 -15 -5 -9 3 -15 0 -15 -10 0 -8 5 -12 10 -9
6 4 19 1 28 -7 15 -12 16 -11 3 5 -9 11 -10 17 -2 17 6 0 11 5 11 10 0 6 -4
10 -10 10 -5 0 -10 -5 -10 -11z"/>
<path d="M3020 8285 c0 -8 4 -15 10 -15 5 0 7 7 4 15 -4 8 -8 15 -10 15 -2 0
-4 -7 -4 -15z"/>
<path d="M1905 8280 c3 -5 8 -10 11 -10 2 0 4 5 4 10 0 6 -5 10 -11 10 -5 0
-7 -4 -4 -10z"/>
<path d="M1936 8274 c-20 -19 -21 -31 -2 -15 11 9 15 9 19 -1 3 -7 4 -3 4 10
-1 26 -1 26 -21 6z"/>
<path d="M2216 8281 c-3 -5 1 -11 9 -14 9 -4 12 -1 8 9 -6 16 -10 17 -17 5z"/>
<path d="M2512 8278 c7 -20 35 -21 42 -1 6 14 5 16 -5 6 -15 -15 -33 -17 -24
-3 3 6 1 10 -5 10 -7 0 -10 -6 -8 -12z"/>
<path d="M3358 8281 c11 -7 11 -9 -2 -14 -20 -8 -20 -31 0 -47 8 -8 14 -9 13
-4 -4 25 3 44 17 44 14 0 14 3 4 15 -7 8 -20 15 -29 15 -12 0 -13 -2 -3 -9z
m-1 -43 c-3 -8 -6 -5 -6 6 -1 11 2 17 5 13 3 -3 4 -12 1 -19z"/>
<path d="M1729 8263 c-13 -16 -12 -17 4 -4 9 7 17 15 17 17 0 8 -8 3 -21 -13z"/>
<path d="M2140 8271 c0 -6 4 -12 8 -15 5 -3 9 1 9 9 0 8 -4 15 -9 15 -4 0 -8
-4 -8 -9z"/>
<path d="M3503 8256 c4 -9 -1 -17 -11 -19 -16 -4 -16 -5 0 -6 10 0 22 8 28 19
9 16 8 20 -6 20 -10 0 -14 -5 -11 -14z"/>
<path d="M3265 8249 c-4 -6 -5 -12 -2 -15 2 -3 7 2 10 11 7 17 1 20 -8 4z"/>
<path d="M1866 8227 c3 -10 9 -15 12 -12 3 3 0 11 -7 18 -10 9 -11 8 -5 -6z"/>
<path d="M1940 8229 c0 -5 5 -7 10 -4 6 3 10 8 10 11 0 2 -4 4 -10 4 -5 0 -10
-5 -10 -11z"/>
<path d="M3046 8232 c-3 -5 1 -9 9 -9 8 0 12 4 9 9 -3 4 -7 8 -9 8 -2 0 -6 -4
-9 -8z"/>
<path d="M3150 8230 c0 -5 5 -10 11 -10 5 0 7 5 4 10 -3 6 -8 10 -11 10 -2 0
-4 -4 -4 -10z"/>
<path d="M3187 8233 c-12 -12 -7 -19 15 -20 13 -1 18 1 13 5 -6 4 -13 11 -16
15 -3 4 -9 4 -12 0z"/>
<path d="M3523 8215 c0 -8 4 -12 9 -9 5 3 6 10 3 15 -9 13 -12 11 -12 -6z"/>
<path d="M1695 8200 c-10 -11 -13 -20 -7 -20 7 0 12 5 12 11 0 6 7 9 14 6 10
-4 13 -1 9 9 -7 18 -6 18 -28 -6z"/>
<path d="M3874 8206 c-8 -9 -5 -15 12 -23 17 -8 26 -8 31 -1 3 7 1 8 -6 4 -6
-4 -14 1 -19 12 -5 15 -10 17 -18 8z"/>
<path d="M3942 8194 c-11 -12 -10 -14 3 -14 8 0 15 6 15 13 0 9 2 9 9 -1 4 -8
7 -25 5 -39 -1 -13 0 -22 4 -19 3 4 6 21 7 39 1 36 -20 46 -43 21z"/>
<path d="M1845 8190 c3 -5 8 -10 11 -10 2 0 4 5 4 10 0 6 -5 10 -11 10 -5 0
-7 -4 -4 -10z"/>
<path d="M3730 8189 c0 -5 5 -7 10 -4 6 3 10 8 10 11 0 2 -4 4 -10 4 -5 0 -10
-5 -10 -11z"/>
<path d="M1498 8183 c20 -4 21 -7 10 -20 -12 -15 -11 -15 9 -3 27 17 20 30
-15 29 -24 -2 -25 -2 -4 -6z"/>
<path d="M3871 8154 c0 -11 3 -14 6 -6 3 7 2 16 -1 19 -3 4 -6 -2 -5 -13z"/>
<path d="M1040 8139 c11 -8 12 -12 3 -16 -7 -2 -13 -10 -13 -16 0 -6 7 -4 16
5 17 17 12 38 -9 38 -7 0 -6 -4 3 -11z"/>
<path d="M1210 8136 c0 -2 7 -9 15 -16 13 -11 14 -10 9 4 -5 14 -24 23 -24 12z"/>
<path d="M4006 8132 c-3 -5 1 -9 9 -9 8 0 12 4 9 9 -3 4 -7 8 -9 8 -2 0 -6 -4
-9 -8z"/>
<path d="M4199 8131 c7 -5 11 -13 7 -19 -3 -6 -2 -13 4 -17 5 -3 10 1 10 9 0
9 5 16 11 16 5 0 8 -4 4 -9 -3 -5 -1 -12 5 -16 14 -9 13 18 -2 33 -7 7 -21 12
-32 12 -16 0 -18 -2 -7 -9z"/>
<path d="M980 8120 c0 -5 5 -10 11 -10 5 0 7 5 4 10 -3 6 -8 10 -11 10 -2 0
-4 -4 -4 -10z"/>
<path d="M1186 8122 c-3 -5 1 -9 9 -9 8 0 12 4 9 9 -3 4 -7 8 -9 8 -2 0 -6 -4
-9 -8z"/>
<path d="M1255 8120 c-3 -6 1 -7 9 -4 18 7 21 14 7 14 -6 0 -13 -4 -16 -10z"/>
<path d="M1318 8123 c6 -2 10 -8 8 -12 -3 -4 4 -12 14 -19 18 -11 19 -10 8 13
-6 14 -18 25 -27 24 -11 0 -12 -2 -3 -6z"/>
<path d="M3896 8117 c3 -10 9 -15 12 -12 3 3 0 11 -7 18 -10 9 -11 8 -5 -6z"/>
<path d="M4045 8120 c3 -5 11 -10 16 -10 6 0 7 5 4 10 -3 6 -11 10 -16 10 -6
0 -7 -4 -4 -10z"/>
<path d="M4147 8114 c-3 -3 -3 -12 0 -20 4 -11 7 -11 19 1 8 7 14 16 14 19 0
8 -25 8 -33 0z"/>
<path d="M1005 8100 c-4 -6 -11 -8 -16 -5 -5 4 -9 1 -9 -4 0 -16 16 -13 30 4
7 8 10 15 7 15 -3 0 -9 -5 -12 -10z"/>
<path d="M1390 8103 c0 -6 8 -17 18 -24 16 -13 16 -13 2 6 -8 11 -16 22 -17
24 -2 2 -3 0 -3 -6z"/>
<path d="M1033 8075 c0 -8 4 -12 9 -9 4 3 8 9 8 15 0 5 -4 9 -8 9 -5 0 -9 -7
-9 -15z"/>
<path d="M1233 8065 c0 -8 4 -12 9 -9 5 3 6 10 3 15 -9 13 -12 11 -12 -6z"/>
<path d="M1056 8062 c-2 -4 4 -8 14 -8 10 0 16 4 14 8 -3 4 -9 8 -14 8 -5 0
-11 -4 -14 -8z"/>
<path d="M4290 8059 c0 -5 5 -7 10 -4 6 3 10 8 10 11 0 2 -4 4 -10 4 -5 0 -10
-5 -10 -11z"/>
<path d="M4533 8030 c-3 -11 -10 -20 -15 -20 -5 0 -6 -4 -3 -10 3 -5 11 -10
17 -10 6 0 9 3 5 6 -3 3 -2 17 3 30 5 13 7 24 4 24 -3 0 -8 -9 -11 -20z"/>
<path d="M715 8001 c-3 -5 0 -13 6 -17 7 -4 9 -3 5 4 -3 5 0 13 6 15 9 4 10 6
1 6 -6 1 -14 -3 -18 -8z"/>
<path d="M4555 7969 c-4 -6 -5 -12 -2 -15 2 -3 7 2 10 11 7 17 1 20 -8 4z"/>
<path d="M785 7960 c-3 -5 -1 -10 4 -10 6 0 11 5 11 10 0 6 -2 10 -4 10 -3 0
-8 -4 -11 -10z"/>
<path d="M450 7930 c0 -11 2 -20 4 -20 2 0 6 9 9 20 3 11 1 20 -4 20 -5 0 -9
-9 -9 -20z"/>
<path d="M607 7943 c-11 -11 -8 -21 9 -27 13 -5 14 -4 6 7 -7 8 -9 17 -5 20 3
4 4 7 1 7 -2 0 -8 -3 -11 -7z"/>
<path d="M630 7940 c0 -6 5 -8 11 -4 6 3 16 0 21 -7 8 -12 9 -11 5 1 -4 18
-37 27 -37 10z"/>
<path d="M4630 7930 c0 -5 5 -10 11 -10 5 0 7 5 4 10 -3 6 -8 10 -11 10 -2 0
-4 -4 -4 -10z"/>
<path d="M475 7911 c3 -6 12 -9 18 -5 7 3 3 -2 -8 -12 -15 -13 -16 -15 -3 -11
9 3 19 1 22 -6 2 -7 3 -1 2 13 -2 14 -10 26 -21 28 -11 3 -15 0 -10 -7z"/>
<path d="M367 7893 c-3 -4 1 -21 7 -38 13 -30 13 -30 20 -6 8 23 -16 63 -27
44z"/>
<path d="M4839 7888 c-1 -2 -2 -15 -3 -30 -2 -18 1 -25 11 -21 16 6 17 19 3
28 -6 4 -8 11 -5 16 4 5 4 9 1 9 -3 0 -6 -1 -7 -2z"/>
<path d="M411 7863 c-1 -16 5 -23 18 -23 11 0 22 4 25 9 4 5 -2 8 -11 7 -10
-2 -21 4 -25 13 -5 12 -7 11 -7 -6z"/>
<path d="M5015 7870 c3 -5 8 -10 11 -10 2 0 4 5 4 10 0 6 -5 10 -11 10 -5 0
-7 -4 -4 -10z"/>
<path d="M567 7839 c7 -7 15 -10 18 -7 3 3 -2 9 -12 12 -14 6 -15 5 -6 -5z"/>
<path d="M5016 7828 c3 -5 10 -6 15 -3 13 9 11 12 -6 12 -8 0 -12 -4 -9 -9z"/>
<path d="M460 7820 c0 -5 5 -10 11 -10 5 0 7 5 4 10 -3 6 -8 10 -11 10 -2 0
-4 -4 -4 -10z"/>
<path d="M4790 7826 c0 -2 7 -7 16 -10 8 -3 12 -2 9 4 -6 10 -25 14 -25 6z"/>
<path d="M384 7806 c11 -9 24 -16 30 -16 12 0 7 5 -24 19 -24 11 -24 11 -6 -3z"/>
<path d="M5143 7798 c15 -23 29 -24 20 -1 -5 12 -3 14 8 8 8 -4 11 -4 6 0 -4
5 -16 9 -26 10 -16 1 -17 -1 -8 -17z"/>
<path d="M280 7795 c12 -15 3 -37 -25 -57 -6 -5 -6 -8 2 -8 6 0 15 5 18 10 4
6 11 8 16 5 5 -3 6 1 3 10 -5 11 -2 14 10 9 9 -3 13 -11 9 -17 -3 -6 -1 -7 6
-3 8 5 3 16 -16 37 -29 30 -45 40 -23 14z"/>
<path d="M5185 7791 c-3 -6 4 -15 15 -21 20 -11 21 -10 10 9 -12 23 -16 25
-25 12z"/>
<path d="M205 7780 c-3 -5 -2 -10 4 -10 5 0 13 5 16 10 3 6 2 10 -4 10 -5 0
-13 -4 -16 -10z"/>
<path d="M5120 7780 c-13 -8 -12 -10 3 -10 10 0 16 -3 14 -7 -3 -5 8 -8 23 -8
15 0 26 3 23 8 -2 4 -13 7 -23 7 -10 0 -20 4 -22 10 -2 6 -8 6 -18 0z"/>
<path d="M410 7769 c0 -5 5 -7 10 -4 6 3 10 8 10 11 0 2 -4 4 -10 4 -5 0 -10
-5 -10 -11z"/>
<path d="M155 7760 c3 -5 8 -10 11 -10 2 0 4 5 4 10 0 6 -5 10 -11 10 -5 0 -7
-4 -4 -10z"/>
<path d="M172 7739 c-8 -12 -9 -18 -3 -15 5 4 15 -2 21 -11 10 -15 11 -15 6
-1 -2 9 2 19 10 22 8 3 14 11 14 17 0 9 -3 9 -14 0 -9 -8 -15 -8 -18 -1 -1 5
-9 1 -16 -11z"/>
<path d="M5091 7744 c0 -11 3 -14 6 -6 3 7 2 16 -1 19 -3 4 -6 -2 -5 -13z"/>
<path d="M125 7720 c3 -5 2 -10 -3 -10 -6 0 -13 -8 -17 -17 -5 -14 -3 -15 6
-6 14 14 42 6 32 -10 -3 -5 -1 -7 5 -4 11 8 -7 57 -21 57 -5 0 -5 -4 -2 -10z"/>
<path d="M217 7715 c-4 -8 -1 -17 5 -21 7 -4 8 -3 4 4 -5 8 2 12 21 13 25 0
26 1 8 9 -28 12 -32 12 -38 -5z"/>
<path d="M36 7678 c3 -4 1 -8 -4 -8 -5 0 -9 -6 -10 -12 0 -7 -2 -22 -5 -33 -2
-11 -2 -14 0 -7 3 6 9 12 15 12 6 0 8 3 5 7 -4 3 -1 16 7 28 12 18 12 22 1 22
-8 0 -12 -4 -9 -9z"/>
<path d="M193 7675 c0 -8 4 -12 9 -9 5 3 6 10 3 15 -9 13 -12 11 -12 -6z"/>
<path d="M5310 7669 c0 -5 5 -7 10 -4 6 3 10 8 10 11 0 2 -4 4 -10 4 -5 0 -10
-5 -10 -11z"/>
<path d="M5498 7656 c-24 -18 -23 -29 3 -21 15 5 19 4 15 -4 -4 -6 -2 -11 4
-11 6 0 9 -4 6 -9 -7 -11 3 -41 13 -41 14 0 8 35 -10 61 -10 14 -16 29 -12 33
11 11 -1 6 -19 -8z"/>
<path d="M5265 7650 c-3 -6 1 -7 9 -4 18 7 21 14 7 14 -6 0 -13 -4 -16 -10z"/>
<path d="M5368 7633 c6 -2 18 -2 25 0 6 3 1 5 -13 5 -14 0 -19 -2 -12 -5z"/>
<path d="M163 7615 c-3 -9 -3 -18 -1 -21 3 -3 8 4 11 16 6 23 -1 27 -10 5z"/>
<path d="M5585 7600 c-3 -5 -1 -10 4 -10 6 0 11 5 11 10 0 6 -2 10 -4 10 -3 0
-8 -4 -11 -10z"/>
<path d="M84 7568 c-4 -7 -4 -10 1 -6 4 4 15 2 24 -5 14 -11 14 -10 2 6 -16
20 -18 21 -27 5z"/>
<path d="M5426 7556 c3 -7 11 -13 19 -13 22 0 18 14 -4 20 -13 3 -18 0 -15 -7z"/>
<path d="M5485 7551 c-3 -5 -2 -12 3 -15 5 -3 9 1 9 9 0 17 -3 19 -12 6z"/>
<path d="M5510 7556 c0 -2 7 -6 15 -10 8 -3 15 -1 15 4 0 6 -7 10 -15 10 -8 0
-15 -2 -15 -4z"/>
<path d="M5542 7514 c-7 -8 -8 -14 -3 -14 10 0 25 19 20 25 -2 1 -10 -3 -17
-11z"/>
<path d="M5620 7491 c0 -10 26 -9 36 2 4 4 -2 7 -14 7 -12 0 -22 -4 -22 -9z"/>
<path d="M5703 7474 c0 -9 8 -14 21 -12 22 3 26 20 5 27 -8 2 -9 -1 -3 -10 6
-11 5 -12 -7 -2 -13 10 -16 10 -16 -3z"/>
<path d="M5620 7460 c0 -5 5 -10 11 -10 5 0 7 5 4 10 -3 6 -8 10 -11 10 -2 0
-4 -4 -4 -10z"/>
<path d="M5865 7460 c-3 -5 -1 -10 4 -10 6 0 11 5 11 10 0 6 -2 10 -4 10 -3 0
-8 -4 -11 -10z"/>
<path d="M5680 7450 c0 -5 5 -10 11 -10 5 0 7 5 4 10 -3 6 -8 10 -11 10 -2 0
-4 -4 -4 -10z"/>
<path d="M5710 7435 c-7 -9 -11 -17 -9 -20 3 -2 10 5 17 15 14 24 10 26 -8 5z"/>
<path d="M5725 7421 c-3 -5 0 -13 6 -17 8 -5 9 -3 4 6 -6 10 -4 12 9 7 10 -4
15 -3 11 3 -8 13 -22 13 -30 1z"/>
<path d="M5756 7388 c3 -4 11 -5 19 -1 21 7 19 12 -4 10 -11 0 -18 -5 -15 -9z"/>
<path d="M6040 7325 c0 -8 4 -15 10 -15 5 0 7 7 4 15 -4 8 -8 15 -10 15 -2 0
-4 -7 -4 -15z"/>
<path d="M6062 7329 c2 -7 10 -15 17 -17 8 -3 12 1 9 9 -2 7 -10 15 -17 17 -8
3 -12 -1 -9 -9z"/>
<path d="M5992 7322 c-26 -4 -20 -22 8 -22 20 0 36 16 23 22 -5 2 -18 2 -31 0z"/>
<path d="M5840 7311 c0 -6 4 -13 10 -16 6 -3 7 1 4 9 -7 18 -14 21 -14 7z"/>
<path d="M5910 7301 c0 -5 5 -13 10 -16 6 -3 10 -2 10 4 0 5 -4 13 -10 16 -5
3 -10 2 -10 -4z"/>
<path d="M5933 7255 c0 -8 4 -15 9 -15 4 0 8 4 8 9 0 6 -4 12 -8 15 -5 3 -9
-1 -9 -9z"/>
<path d="M5998 7243 c6 -2 9 -10 6 -15 -4 -7 -2 -8 4 -4 7 4 12 2 12 -5 0 -7
2 -10 5 -7 10 10 -7 38 -24 37 -10 0 -11 -2 -3 -6z"/>
<path d="M6146 7157 c4 -11 13 -16 22 -12 8 3 19 0 23 -7 5 -8 8 -5 6 9 -1 17
-5 20 -18 13 -10 -6 -20 -5 -28 3 -10 9 -11 8 -5 -6z"/>
<path d="M6079 7133 c-13 -16 -12 -17 4 -4 9 7 17 15 17 17 0 8 -8 3 -21 -13z"/>
<path d="M6153 7115 c0 -8 4 -12 9 -9 5 3 6 10 3 15 -9 13 -12 11 -12 -6z"/>
<path d="M6225 7080 c3 -5 8 -10 11 -10 2 0 4 5 4 10 0 6 -5 10 -11 10 -5 0
-7 -4 -4 -10z"/>
<path d="M6195 7070 c3 -5 8 -10 11 -10 2 0 4 5 4 10 0 6 -5 10 -11 10 -5 0
-7 -4 -4 -10z"/>
<path d="M6250 7035 c0 -8 2 -15 4 -15 2 0 6 7 10 15 3 8 1 15 -4 15 -6 0 -10
-7 -10 -15z"/>
<path d="M6285 7040 c-3 -6 1 -7 9 -4 18 7 21 14 7 14 -6 0 -13 -4 -16 -10z"/>
<path d="M6314 7010 c1 -10 13 -15 38 -15 32 -1 35 2 27 17 -5 10 -12 18 -15
18 -3 0 -3 -4 0 -9 3 -5 -1 -12 -10 -15 -23 -9 -32 -7 -37 7 -2 7 -3 6 -3 -3z"/>
<path d="M6474 7011 c4 -5 -2 -7 -12 -4 -12 3 -19 -1 -19 -11 0 -8 4 -13 9
-10 4 3 8 1 8 -3 0 -5 9 -9 20 -10 15 -1 19 4 18 23 -1 13 -8 24 -16 24 -7 0
-11 -4 -8 -9z"/>
<path d="M6263 6994 c0 -9 4 -11 12 -4 7 5 14 9 16 7 2 -1 3 0 1 2 -7 11 -29
7 -29 -5z"/>
<path d="M6360 6971 c0 -5 5 -13 10 -16 6 -3 10 -2 10 4 0 5 -4 13 -10 16 -5
3 -10 2 -10 -4z"/>
<path d="M6430 6960 c0 -5 5 -10 11 -10 5 0 7 5 4 10 -3 6 -8 10 -11 10 -2 0
-4 -4 -4 -10z"/>
<path d="M6461 6937 c-13 -21 -12 -21 5 -5 10 10 16 20 13 22 -3 3 -11 -5 -18
-17z"/>
<path d="M6396 6938 c3 -5 10 -6 15 -3 13 9 11 12 -6 12 -8 0 -12 -4 -9 -9z"/>
<path d="M6477 6923 c-12 -12 -7 -22 13 -28 11 -4 18 -10 15 -15 -3 -4 2 -7
10 -6 26 4 26 13 0 20 -18 5 -25 12 -21 21 5 15 -5 20 -17 8z"/>
<path d="M6575 6844 c0 -13 3 -24 8 -24 4 0 7 9 7 19 0 11 -3 22 -7 24 -5 3
-8 -6 -8 -19z"/>
<path d="M6463 6845 c0 -8 4 -12 9 -9 5 3 6 10 3 15 -9 13 -12 11 -12 -6z"/>
<path d="M6640 6825 c0 -9 6 -12 15 -9 8 4 15 7 15 9 0 2 -7 5 -15 9 -9 3 -15
0 -15 -9z"/>
<path d="M6450 6810 c0 -5 5 -10 11 -10 5 0 7 5 4 10 -3 6 -8 10 -11 10 -2 0
-4 -4 -4 -10z"/>
<path d="M6638 6798 c-25 -7 -26 -6 39 -13 12 -1 24 3 26 9 5 12 -29 15 -65 4z"/>
<path d="M6530 6766 c0 -2 7 -7 16 -10 8 -3 12 -2 9 4 -6 10 -25 14 -25 6z"/>
<path d="M6697 6729 c-9 -5 -22 -7 -29 -3 -7 5 -8 3 -4 -5 5 -7 14 -10 22 -7
9 4 18 -3 23 -17 9 -21 9 -21 17 -3 5 13 3 21 -4 24 -7 2 -10 8 -6 13 7 11 4
11 -19 -2z"/>
<path d="M6906 6625 c5 -21 3 -25 -15 -25 -12 0 -21 -4 -21 -10 0 -5 6 -9 13
-7 6 1 11 -4 10 -10 -2 -7 2 -13 8 -13 6 0 9 7 6 15 -7 17 9 30 18 15 5 -8 12
-7 22 2 9 7 28 12 42 11 21 -2 22 -1 6 5 -11 4 -20 13 -20 21 0 8 -6 16 -14
19 -10 3 -12 0 -8 -12 8 -20 -18 -52 -28 -36 -3 6 -3 19 0 30 5 14 2 20 -10
20 -11 0 -14 -6 -9 -25z"/>
<path d="M7127 6549 c7 -7 15 -10 18 -7 3 3 -2 9 -12 12 -14 6 -15 5 -6 -5z"/>
<path d="M7099 6483 c-11 -15 -11 -16 1 -6 10 9 18 9 34 1 19 -10 20 -10 7 5
-17 21 -25 21 -42 0z"/>
<path d="M7065 6460 c-3 -5 -1 -10 4 -10 6 0 11 5 11 10 0 6 -2 10 -4 10 -3 0
-8 -4 -11 -10z"/>
<path d="M7085 6437 c-5 -17 -3 -33 4 -40 6 -6 11 -7 11 -3 0 5 9 -2 21 -15
l20 -24 -17 27 c-9 15 -20 25 -25 22 -5 -3 -9 5 -9 17 0 19 2 20 18 8 9 -8 20
-18 24 -24 4 -6 8 -2 8 8 0 9 -7 17 -15 17 -7 0 -18 8 -24 17 -8 15 -10 14
-16 -10z"/>
<path d="M7146 6451 c-3 -5 5 -11 18 -13 17 -4 23 -1 19 9 -6 15 -29 18 -37 4z"/>
<path d="M6985 6440 c-3 -6 1 -7 9 -4 18 7 21 14 7 14 -6 0 -13 -4 -16 -10z"/>
<path d="M7026 6412 c-2 -4 0 -14 6 -22 8 -12 9 -12 4 2 -3 10 1 18 12 21 16
4 16 5 0 6 -9 0 -19 -3 -22 -7z"/>
<path d="M7203 6312 c1 -14 5 -18 11 -12 7 7 6 14 -1 21 -9 9 -12 7 -10 -9z"/>
<path d="M7270 6236 c0 -2 7 -7 16 -10 8 -3 12 -2 9 4 -6 10 -25 14 -25 6z"/>
<path d="M7228 6223 c7 -3 16 -2 19 1 4 3 -2 6 -13 5 -11 0 -14 -3 -6 -6z"/>
<path d="M7305 6211 c-3 -6 -1 -11 5 -11 6 0 9 -4 6 -8 -3 -5 1 -9 9 -9 12 0
12 3 3 16 -7 9 -13 17 -14 19 -1 2 -5 -1 -9 -7z"/>
<path d="M7273 6183 c-1 -24 -1 -25 7 -8 11 26 12 35 2 35 -4 0 -8 -12 -9 -27z"/>
<path d="M7300 6155 c0 -8 4 -15 10 -15 5 0 7 7 4 15 -4 8 -8 15 -10 15 -2 0
-4 -7 -4 -15z"/>
<path d="M7375 6140 c21 -24 26 -25 19 -6 -3 8 -13 17 -22 21 -13 5 -13 2 3
-15z"/>
<path d="M7498 6094 c24 -10 32 -19 28 -30 -4 -10 1 -18 13 -21 11 -3 17 -11
15 -18 -3 -7 -1 -16 4 -19 5 -3 9 4 8 15 0 11 -7 23 -14 28 -8 5 -13 11 -13
15 3 19 -27 46 -49 45 -23 -1 -23 -2 8 -15z"/>
<path d="M7482 6040 c-12 -19 -11 -20 8 -8 11 7 20 16 20 20 0 15 -15 8 -28
-12z"/>
<path d="M7430 6046 c0 -2 7 -7 16 -10 8 -3 12 -2 9 4 -6 10 -25 14 -25 6z"/>
<path d="M7494 6019 c-3 -6 -1 -16 5 -22 9 -9 11 -8 6 5 -5 13 -2 16 17 11 18
-4 20 -3 8 6 -19 14 -27 14 -36 0z"/>
<path d="M7531 5987 c-17 -21 2 -35 21 -16 13 14 14 19 3 23 -7 2 -18 -1 -24
-7z"/>
<path d="M7655 5929 c-4 -6 -5 -12 -2 -15 2 -3 7 2 10 11 7 17 1 20 -8 4z"/>
<path d="M7616 5908 c3 -5 10 -6 15 -3 13 9 11 12 -6 12 -8 0 -12 -4 -9 -9z"/>
<path d="M7585 5890 c3 -5 8 -10 11 -10 2 0 4 5 4 10 0 6 -5 10 -11 10 -5 0
-7 -4 -4 -10z"/>
<path d="M7675 5860 c-3 -6 1 -7 9 -4 18 7 21 14 7 14 -6 0 -13 -4 -16 -10z"/>
<path d="M7643 5827 c0 -8 6 -14 14 -14 9 0 10 4 2 14 -6 7 -12 13 -14 13 -1
0 -2 -6 -2 -13z"/>
<path d="M7702 5808 c7 -15 15 -23 17 -17 2 6 -4 18 -13 27 -15 15 -15 15 -4
-10z"/>
<path d="M7615 5809 c-4 -6 -5 -12 -2 -15 2 -3 7 2 10 11 7 17 1 20 -8 4z"/>
<path d="M7741 5778 c5 -10 12 -18 15 -18 3 0 2 5 -2 12 -5 7 -2 9 9 5 11 -4
14 -2 11 8 -3 7 -14 13 -24 12 -15 -1 -16 -5 -9 -19z"/>
<path d="M7722 5756 c7 -8 15 -12 17 -11 5 6 -10 25 -20 25 -5 0 -4 -6 3 -14z"/>
<path d="M7770 5740 c0 -5 5 -10 10 -10 6 0 10 5 10 10 0 6 -4 10 -10 10 -5 0
-10 -4 -10 -10z"/>
<path d="M7754 5704 c-18 -14 -18 -15 4 -4 12 6 22 13 22 15 0 8 -5 6 -26 -11z"/>
<path d="M7787 5696 c-4 -10 1 -12 14 -9 23 6 24 9 5 16 -8 3 -17 0 -19 -7z"/>
<path d="M7932 5659 c2 -8 18 -16 34 -17 28 -4 30 7 2 12 -7 1 -19 5 -27 10
-9 6 -12 5 -9 -5z"/>
<path d="M7890 5639 c0 -6 -9 -8 -22 -4 -19 5 -20 4 -8 -5 39 -28 45 -29 46
-4 1 13 -2 24 -7 24 -5 0 -9 -5 -9 -11z"/>
<path d="M7796 5591 c-4 -5 3 -7 14 -4 23 6 26 13 6 13 -8 0 -17 -4 -20 -9z"/>
<path d="M7917 5583 c-4 -3 -7 -11 -7 -17 0 -6 5 -5 12 2 6 6 9 14 7 17 -3 3
-9 2 -12 -2z"/>
<path d="M7908 5523 c7 -3 16 -2 19 1 4 3 -2 6 -13 5 -11 0 -14 -3 -6 -6z"/>
<path d="M7955 5460 c-3 -5 -3 -10 2 -10 4 0 2 -4 -6 -9 -9 -6 -10 -11 -2 -15
6 -4 11 -2 11 5 0 8 4 8 15 -1 9 -7 18 -10 22 -6 3 3 1 6 -6 6 -7 0 -9 5 -6
10 3 6 -1 10 -10 10 -9 0 -13 5 -10 10 3 6 4 10 1 10 -3 0 -8 -4 -11 -10z"/>
<path d="M8000 5460 c0 -5 5 -10 11 -10 5 0 7 5 4 10 -3 6 -8 10 -11 10 -2 0
-4 -4 -4 -10z"/>
<path d="M7920 5431 c0 -6 4 -13 10 -16 6 -3 7 1 4 9 -7 18 -14 21 -14 7z"/>
<path d="M7908 5393 c7 -3 16 -2 19 1 4 3 -2 6 -13 5 -11 0 -14 -3 -6 -6z"/>
<path d="M8076 5382 c-3 -6 -1 -14 5 -17 14 -9 20 -2 10 14 -6 8 -11 9 -15 3z"/>
<path d="M7980 5360 c0 -5 5 -10 11 -10 5 0 7 5 4 10 -3 6 -8 10 -11 10 -2 0
-4 -4 -4 -10z"/>
<path d="M8065 5280 c-2 -3 0 -12 6 -20 7 -12 9 -12 9 -1 0 11 3 11 18 0 9 -7
14 -9 10 -5 -4 5 -4 14 2 21 6 8 2 11 -16 11 -14 0 -27 -3 -29 -6z"/>
<path d="M8226 5242 c-3 -3 -6 -11 -6 -19 0 -19 24 -16 43 5 14 16 14 17 -8
18 -13 1 -26 -1 -29 -4z m24 -12 c0 -5 -2 -10 -4 -10 -3 0 -8 5 -11 10 -3 6
-1 10 4 10 6 0 11 -4 11 -10z"/>
<path d="M8010 5236 c0 -2 7 -7 16 -10 8 -3 12 -2 9 4 -6 10 -25 14 -25 6z"/>
<path d="M8148 5183 c6 -2 12 -11 12 -19 0 -8 6 -11 15 -8 12 5 12 8 0 20 -7
8 -20 14 -27 13 -10 0 -10 -2 0 -6z"/>
<path d="M8165 5140 c-19 -8 -19 -9 3 -9 12 -1 22 4 22 9 0 6 -1 10 -2 9 -2 0
-12 -4 -23 -9z"/>
<path d="M8110 5029 c0 -5 5 -7 10 -4 6 3 10 8 10 11 0 2 -4 4 -10 4 -5 0 -10
-5 -10 -11z"/>
<path d="M8233 4995 c0 -8 4 -12 9 -9 5 3 6 10 3 15 -9 13 -12 11 -12 -6z"/>
<path d="M8261 4994 c0 -11 3 -14 6 -6 3 7 2 16 -1 19 -3 4 -6 -2 -5 -13z"/>
<path d="M8319 4933 c11 -22 30 -38 35 -32 2 2 -8 15 -21 29 -23 23 -24 23
-14 3z"/>
<path d="M8295 4819 c-3 -4 2 -6 10 -5 21 3 28 13 10 13 -9 0 -18 -4 -20 -8z"/>
<path d="M8396 4811 c-4 -6 -12 -9 -19 -7 -7 1 -9 1 -5 -1 4 -2 4 -12 1 -20
-4 -11 1 -9 16 6 13 13 20 25 18 27 -3 3 -8 1 -11 -5z"/>
<path d="M8413 4783 c-19 -7 -16 -16 10 -32 20 -13 21 -13 9 2 -8 9 -11 21 -7
27 7 11 6 11 -12 3z"/>
<path d="M8366 4744 c-5 -14 -4 -15 9 -4 17 14 19 20 6 20 -5 0 -12 -7 -15
-16z"/>
<path d="M8446 4733 c-3 -4 -6 -16 -5 -27 0 -20 1 -20 8 -1 7 18 8 18 18 1 6
-10 12 -15 15 -10 6 11 -28 45 -36 37z"/>
<path d="M8365 4709 c-11 -16 -1 -19 13 -3 7 8 8 14 3 14 -5 0 -13 -5 -16 -11z"/>
<path d="M8390 4700 c-9 -6 -10 -10 -3 -10 6 0 15 5 18 10 8 12 4 12 -15 0z"/>
<path d="M8320 4679 c0 -5 5 -7 10 -4 6 3 10 8 10 11 0 2 -4 4 -10 4 -5 0 -10
-5 -10 -11z"/>
<path d="M8400 4659 c0 -5 5 -7 10 -4 6 3 10 8 10 11 0 2 -4 4 -10 4 -5 0 -10
-5 -10 -11z"/>
<path d="M8343 4605 c0 -11 4 -12 14 -4 7 6 13 13 13 15 0 2 -6 4 -13 4 -8 0
-14 -7 -14 -15z"/>
<path d="M8350 4570 c0 -5 4 -10 9 -10 6 0 13 5 16 10 3 6 -1 10 -9 10 -9 0
-16 -4 -16 -10z"/>
<path d="M8383 4526 c1 -6 -4 -10 -10 -8 -7 1 -13 -2 -13 -8 0 -14 13 -13 28
2 9 9 12 8 12 -5 0 -9 4 -17 9 -17 4 0 6 11 4 23 -3 13 -11 24 -18 24 -8 0
-13 -5 -12 -11z"/>
<path d="M8310 4476 c0 -2 8 -10 18 -17 15 -13 16 -12 3 4 -13 16 -21 21 -21
13z"/>
<path d="M8370 4472 c0 -4 10 -9 22 -9 18 -2 20 0 8 7 -18 12 -30 13 -30 2z"/>
<path d="M8375 4440 c-3 -5 -1 -10 4 -10 6 0 11 5 11 10 0 6 -2 10 -4 10 -3 0
-8 -4 -11 -10z"/>
<path d="M8429 4397 c6 -8 7 -18 3 -22 -4 -5 -2 -5 5 -1 14 8 6 36 -9 36 -7 0
-6 -5 1 -13z"/>
<path d="M8555 4380 c-3 -6 -18 -7 -32 -4 -18 5 -24 4 -19 -5 4 -6 12 -9 17
-6 8 6 13 -9 10 -28 -1 -5 3 -6 8 -3 5 4 19 -3 30 -15 l20 -21 -6 21 c-3 11
-10 21 -15 21 -6 0 -8 11 -6 25 6 27 3 31 -7 15z"/>
<path d="M8628 4354 c-16 -8 -28 -19 -28 -24 0 -16 13 -12 45 15 33 27 25 32
-17 9z"/>
<path d="M8626 4313 c-6 -14 -5 -15 5 -6 7 7 10 15 7 18 -3 3 -9 -2 -12 -12z"/>
<path d="M8837 4199 c7 -7 15 -10 18 -7 3 3 -2 9 -12 12 -14 6 -15 5 -6 -5z"/>
<path d="M9053 4175 c0 -8 4 -12 9 -9 5 3 6 10 3 15 -9 13 -12 11 -12 -6z"/>
<path d="M9176 4058 c-19 -38 -20 -49 -2 -25 9 12 16 14 21 8 9 -15 22 -14 22
3 0 8 -6 12 -13 9 -9 -3 -11 2 -7 16 8 31 -3 25 -21 -11z"/>
<path d="M9080 4050 c0 -5 5 -10 11 -10 5 0 7 5 4 10 -3 6 -8 10 -11 10 -2 0
-4 -4 -4 -10z"/>
<path d="M9177 4017 c-3 -8 3 -13 15 -14 10 -1 18 3 16 9 -6 18 -25 21 -31 5z"/>
<path d="M9146 4007 c3 -10 9 -15 12 -12 3 3 0 11 -7 18 -10 9 -11 8 -5 -6z"/>
<path d="M9095 3979 c-4 -6 -5 -12 -2 -15 2 -3 7 2 10 11 7 17 1 20 -8 4z"/>
<path d="M9201 3973 c-12 -8 -21 -20 -21 -28 0 -7 -5 -16 -10 -18 -6 -3 -5 -4
2 -3 7 1 18 13 24 25 11 21 13 21 21 6 9 -16 11 -16 16 -1 4 9 11 16 17 16 6
0 9 -4 5 -9 -3 -5 0 -13 7 -17 7 -4 10 -4 6 1 -4 4 -3 14 3 22 9 10 8 13 -2
14 -8 0 -22 2 -31 4 -9 2 -26 -4 -37 -12z"/>
<path d="M9150 3961 c0 -5 5 -13 10 -16 6 -3 10 -2 10 4 0 5 -4 13 -10 16 -5
3 -10 2 -10 -4z"/>
<path d="M9240 3930 c0 -6 7 -10 15 -10 8 0 15 2 15 4 0 2 -7 6 -15 10 -8 3
-15 1 -15 -4z"/>
<path d="M9122 3904 c-7 -8 -8 -14 -3 -14 10 0 25 19 20 25 -2 1 -10 -3 -17
-11z"/>
<path d="M0 2657 l0 -536 118 4 c297 11 464 20 526 29 9 1 19 5 22 9 11 11 26
8 19 -3 -3 -6 1 -7 9 -4 9 3 16 10 16 16 0 5 5 6 10 3 6 -3 10 -2 10 4 0 5 8
8 18 6 9 -2 17 -4 17 -5 0 -1 8 -3 18 -5 9 -2 15 1 11 6 -3 5 2 9 11 9 10 0
13 -5 9 -12 -4 -7 3 -4 16 7 13 11 20 14 16 8 -4 -7 -2 -13 3 -13 6 0 11 4 11
9 0 4 19 9 43 9 72 2 77 3 77 11 0 14 38 19 51 7 9 -8 10 -8 5 1 -5 9 2 11 24
8 17 -2 52 0 79 4 26 4 56 4 67 1 10 -4 34 -3 54 2 65 15 185 30 245 29 33 -1
98 6 145 15 80 14 142 17 335 14 95 -1 113 4 121 37 7 26 87 85 166 121 27 12
48 27 48 33 0 5 5 7 10 4 6 -4 10 -3 9 2 -3 15 14 73 22 79 18 10 9 66 -12 83
l-21 17 37 28 c32 24 35 30 21 38 -9 5 -16 14 -16 19 0 6 4 8 9 5 4 -3 5 13 1
37 -5 23 -6 45 -4 49 3 4 -4 24 -14 45 -11 21 -17 44 -15 51 3 7 0 25 -5 41
-8 24 -7 31 5 35 12 5 13 9 3 21 -6 8 -9 19 -6 24 4 6 -5 18 -19 27 -32 21
-202 22 -1105 10 -611 -8 -670 -6 -657 27 3 8 -7 12 -29 12 -30 1 -33 -2 -28
-22 5 -17 2 -23 -9 -23 -9 0 -19 4 -22 10 -4 6 1 7 11 3 14 -5 16 -3 11 11 -4
10 -7 21 -7 25 0 5 -28 8 -62 9 -89 0 -218 12 -245 23 -15 5 -23 5 -23 -2 0
-6 -7 -6 -20 1 -11 6 -39 10 -63 9 -23 -1 -50 2 -59 6 -17 7 -18 -22 -18 -528z
m557 447 c2 -5 -5 -10 -15 -10 -10 0 -19 6 -19 12 0 14 29 12 34 -2z"/>
</g>
</svg>
