<?xml version="1.0" standalone="no"?>
<!DOCTYPE svg PUBLIC "-//W3C//DTD SVG 20010904//EN"
 "http://www.w3.org/TR/2001/REC-SVG-20010904/DTD/svg10.dtd">
<svg version="1.0" xmlns="http://www.w3.org/2000/svg"
 width="26864.000000pt" height="8338.000000pt" viewBox="0 0 26864.000000 8338.000000"
 preserveAspectRatio="xMidYMid meet">

<g transform="translate(0.000000,8338.000000) scale(0.100000,-0.100000)"
fill="#000000" stroke="none">
<path d="M66594 77690 c-473 -50 -890 -322 -1128 -735 -25 -44 -144 -318 -265
-610 -2061 -4990 -10044 -23690 -21396 -50123 -167 -387 -177 -409 -281 -565
-601 -909 -1416 -1570 -2434 -1975 -1374 -546 -3099 -634 -5135 -261 -1781
326 -3811 1032 -5540 1927 -457 237 -700 379 -1269 744 -1294 831 -1883 1260
-2646 1928 -519 455 -1199 1122 -1776 1742 -97 104 -99 106 -119 89 -11 -10
-2697 -2504 -5970 -5543 -3284 -3049 -5973 -5553 -6001 -5589 -154 -192 -253
-402 -305 -649 -33 -151 -33 -419 0 -570 44 -208 127 -401 242 -565 103 -148
1040 -1077 1762 -1748 3584 -3332 7430 -5826 11462 -7432 3030 -1206 6153
-1907 9310 -2089 625 -36 812 -41 1670 -41 997 0 1396 14 2255 81 4691 361
9334 1890 13330 4389 3237 2024 5895 4604 7522 7300 362 601 672 1205 1420
2770 2747 5744 6991 15829 12308 29246 137 344 266 662 288 705 137 272 371
508 637 642 404 202 892 208 1304 16 300 -140 540 -380 686 -686 24 -51 3696
-9653 8160 -21338 4464 -11685 8187 -21427 8272 -21650 85 -223 175 -442 199
-486 181 -336 479 -585 841 -703 51 -17 132 -38 180 -48 84 -17 494 -18 9268
-18 l9180 0 102 23 c523 116 929 479 1097 982 53 159 70 269 70 455 0 189 -17
300 -72 460 -44 128 -28264 68990 -28323 69112 -90 188 -263 397 -439 529
-160 121 -396 224 -625 272 -74 15 -699 16 -8925 18 -4865 1 -8877 -2 -8916
-6z"/>
<path d="M130220 60924 c-457 -18 -659 -27 -860 -39 -3289 -207 -5904 -1076
-7849 -2609 -998 -787 -1818 -1681 -2413 -2632 -727 -1163 -1186 -2433 -1397
-3862 l-28 -192 4232 0 4232 0 37 82 c57 127 178 338 281 493 381 572 905 999
1547 1259 538 219 1232 393 1918 480 429 55 720 75 1210 83 741 11 1417 -47
2220 -193 534 -97 1317 -288 1702 -415 938 -310 1517 -872 1723 -1675 55 -213
76 -378 82 -645 6 -249 -2 -354 -38 -534 -90 -444 -363 -886 -757 -1227 -612
-528 -1491 -927 -2737 -1241 -658 -166 -1522 -323 -2220 -402 -601 -68 -1103
-148 -1760 -280 -681 -136 -938 -173 -1405 -199 -266 -15 -386 -33 -990 -147
-2278 -428 -4336 -1175 -6017 -2185 -794 -477 -1361 -901 -1823 -1364 -519
-519 -927 -1088 -1275 -1775 -557 -1100 -884 -2381 -1000 -3915 -32 -427 -39
-660 -39 -1225 0 -564 8 -809 40 -1245 209 -2860 1166 -5036 2853 -6487 828
-712 2052 -1434 3236 -1908 1342 -537 2695 -830 4330 -936 265 -17 1361 -23
1823 -10 1347 38 2887 147 4332 307 1679 185 3173 587 4694 1262 272 121 901
431 1169 576 1591 863 2980 2216 4120 4012 869 1369 1427 3128 1666 5254 75
663 113 1255 131 2030 13 566 13 12044 0 12405 -21 578 -76 1068 -176 1563
-283 1413 -870 2610 -1808 3682 -242 277 -647 668 -976 943 -1593 1329 -3836
2199 -6765 2623 -976 141 -1912 222 -3185 275 -239 10 -1873 20 -2060 13z
m6770 -19116 c0 -1930 -6 -2145 -70 -2708 -241 -2103 -1132 -3757 -2628 -4882
-1138 -856 -2546 -1323 -4276 -1418 -254 -14 -892 -14 -1106 0 -1145 74 -2010
367 -2670 904 -90 74 -183 167 -299 301 -551 639 -856 1421 -932 2395 -14 191
-14 621 1 785 66 727 300 1437 703 2135 143 249 166 281 267 375 646 599 1703
1123 3050 1510 69 19 796 182 1615 360 1682 366 2148 478 3005 721 1272 361
2419 776 3185 1153 77 38 143 70 148 70 4 1 7 -765 7 -1701z"/>
<path d="M180025 60923 c-1078 -36 -2047 -141 -2970 -323 -3043 -599 -5519
-1981 -7479 -4174 -1289 -1443 -2283 -3198 -2962 -5231 -580 -1739 -931 -3704
-1049 -5865 -33 -618 -39 -884 -39 -1700 0 -967 16 -1471 74 -2290 316 -4418
1594 -7951 3812 -10530 934 -1086 1786 -1849 2838 -2542 2045 -1348 4496
-2105 7345 -2268 762 -43 1741 -41 2540 5 3092 182 5735 1003 7933 2465 641
426 1243 889 1752 1346 212 191 693 672 884 884 1462 1627 2501 3592 3170
5994 37 129 66 240 66 246 0 7 -938 10 -3367 7 -3097 -3 -3380 -4 -3523 -20
-696 -77 -1194 -233 -1610 -505 -197 -128 -504 -385 -715 -596 -165 -166 -281
-315 -342 -442 l-44 -91 -382 -380 c-210 -209 -411 -403 -446 -432 -139 -114
-334 -229 -486 -286 -33 -13 -118 -55 -190 -95 -721 -396 -1545 -647 -2475
-755 -568 -65 -1338 -73 -1930 -19 -1541 139 -2767 664 -3681 1574 -91 91
-205 212 -254 270 -49 58 -124 143 -165 190 -1025 1146 -1612 2744 -1795 4885
-20 234 -45 666 -45 778 l0 87 10915 0 10916 0 19 46 c51 117 84 312 100 585
21 377 9 2309 -20 2984 -167 3926 -1034 7155 -2620 9755 -471 773 -1054 1555
-1549 2077 -1507 1593 -3352 2754 -5526 3478 -1587 529 -3297 816 -5280 885
-245 9 -1197 11 -1420 3z m1565 -7333 c529 -42 916 -103 1345 -212 1246 -314
2268 -974 2978 -1923 724 -968 1184 -2299 1386 -4010 20 -165 61 -591 61 -627
0 -17 -242 -18 -6437 -18 l-6436 0 7 163 c9 217 41 584 71 825 216 1700 797
3016 1775 4016 934 955 2090 1531 3473 1731 194 28 425 51 632 64 180 12 969
6 1145 -9z"/>
<path d="M212025 60924 c-946 -64 -1537 -130 -2290 -255 -2604 -434 -5077
-1390 -7319 -2829 -793 -509 -1417 -1069 -1989 -1783 -1414 -1766 -2257 -4306
-2507 -7552 -19 -248 -36 -528 -62 -1025 -9 -170 -13 -2736 -15 -10552 l-3
-10328 4420 0 4420 0 0 10923 c0 7233 4 10978 10 11087 48 776 186 1455 417
2045 77 198 266 575 372 743 183 292 354 506 590 743 388 388 944 776 1526
1064 292 145 489 227 785 325 609 204 1193 307 1855 329 1453 48 2769 -320
3950 -1104 251 -166 484 -340 645 -482 848 -747 1359 -1811 1525 -3173 53
-437 48 316 55 -9495 5 -8336 7 -9042 23 -9190 31 -305 62 -492 119 -725 143
-590 405 -1121 786 -1590 114 -140 470 -495 606 -603 671 -533 1435 -818 2381
-887 89 -6 988 -10 2473 -10 l2332 0 0 9798 c0 9362 -4 10554 -30 11157 -114
2636 -538 4723 -1325 6520 -100 229 -350 723 -483 955 -399 698 -823 1265
-1337 1789 -608 620 -1102 993 -2025 1528 -2147 1246 -4435 2042 -6860 2387
-593 85 -1154 138 -1855 176 -195 11 -1083 21 -1190 14z"/>
<path d="M241180 60924 c-814 -31 -1218 -58 -1765 -115 -2321 -242 -4302 -851
-5900 -1814 -1021 -614 -2051 -1512 -2802 -2442 -965 -1194 -1611 -2573 -1932
-4125 -39 -189 -98 -530 -121 -693 -6 -44 -13 -95 -16 -112 l-5 -33 4228 1
4228 1 75 151 c275 555 676 1018 1165 1347 375 251 798 428 1440 599 1018 273
2275 366 3455 256 815 -76 1867 -285 2674 -530 925 -281 1510 -776 1771 -1499
149 -412 194 -976 110 -1378 -279 -1345 -1878 -2260 -4810 -2752 -368 -62
-575 -92 -875 -127 -712 -83 -1166 -155 -1823 -290 -634 -129 -974 -176 -1412
-194 -168 -7 -569 -71 -1075 -170 -2509 -493 -4618 -1310 -6385 -2473 -600
-395 -935 -660 -1326 -1051 -343 -343 -606 -664 -863 -1054 -792 -1201 -1271
-2752 -1410 -4567 -37 -484 -41 -601 -41 -1295 0 -693 5 -839 41 -1305 237
-3061 1320 -5304 3259 -6755 1737 -1299 3819 -2126 6075 -2415 773 -98 1302
-125 2320 -117 670 6 852 10 1435 37 1373 63 3311 233 4180 366 1511 231 2902
657 4315 1319 219 102 735 365 940 478 1478 817 2796 2089 3894 3757 260 394
396 630 596 1035 218 441 370 808 531 1285 412 1216 667 2617 763 4205 42 677
41 541 41 7140 0 6623 1 6399 -41 6855 -226 2453 -1362 4443 -3374 5916 -1610
1178 -3880 1964 -6710 2323 -903 115 -1680 177 -2785 222 -237 9 -1884 20
-2065 13z m6767 -19419 c-4 -1880 -2 -1820 -52 -2310 -120 -1171 -463 -2261
-987 -3138 -493 -825 -1171 -1535 -1968 -2062 -1086 -717 -2383 -1108 -3965
-1195 -252 -14 -886 -14 -1105 0 -1129 71 -1999 365 -2662 898 -269 217 -561
593 -773 995 -293 558 -444 1193 -470 1982 -31 908 232 1842 773 2749 99 166
114 186 204 269 634 586 1614 1080 2918 1472 211 63 450 118 1725 395 1474
320 1862 410 2496 579 1515 405 2714 823 3699 1290 l165 78 3 -116 c1 -64 1
-912 -1 -1886z"/>
<path d="M163580 60173 c-2144 -46 -4314 -372 -6315 -948 -1915 -552 -3631
-1390 -5093 -2487 -1240 -931 -2313 -2115 -3180 -3510 -514 -826 -1009 -1832
-1345 -2728 -713 -1905 -1095 -4075 -1177 -6685 -6 -206 -10 -3329 -10 -8767
l0 -8448 4420 0 4420 0 3 9013 c2 6974 6 9046 15 9162 52 634 84 909 158 1322
289 1635 953 2877 1975 3697 938 752 2149 1194 3709 1356 527 54 484 53 2423
57 l1807 4 0 4484 0 4485 -847 -2 c-467 -1 -900 -3 -963 -5z"/>
</g>
</svg>
