<svg version="1.1" id="Layer_1" xmlns="http://www.w3.org/2000/svg" xmlns:xlink="http://www.w3.org/1999/xlink" x="0px" y="0px"
	 width="100%" viewBox="0 0 1024 576" enable-background="new 0 0 1024 576" xml:space="preserve">
<path fill="#FFFFFF" opacity="1.000000" stroke="none" 
	d="
M610.000000,577.000000 
	C406.666656,577.000000 203.833328,577.000000 1.000000,577.000000 
	C1.000000,385.000000 1.000000,193.000000 1.000000,1.000000 
	C342.333344,1.000000 683.666687,1.000000 1025.000000,1.000000 
	C1025.000000,193.000000 1025.000000,385.000000 1025.000000,577.000000 
	C886.833313,577.000000 748.666687,577.000000 610.000000,577.000000 
M250.003235,154.059814 
	C250.003235,154.059814 250.088242,154.054367 249.363449,153.957932 
	C247.283356,151.783752 245.203247,149.609573 243.935501,148.284485 
	C240.663208,148.978073 238.251953,149.930191 235.838730,149.935181 
	C192.339386,150.025269 148.839813,150.006317 105.340294,149.992615 
	C101.197960,149.991302 96.834290,149.350052 93.758202,153.002090 
	C91.029213,156.242050 93.866669,159.615295 93.856567,162.910522 
	C93.808174,178.702545 93.450500,194.494675 93.075218,210.283737 
	C93.001480,213.386002 92.796288,216.084305 96.173241,217.930481 
	C97.565353,218.691574 98.160271,220.910843 99.442368,222.994339 
	C107.460182,222.994339 116.371559,223.001694 125.282890,222.984055 
	C126.276489,222.982086 127.268982,222.785370 128.263412,222.769760 
	C131.359344,222.721069 134.455994,222.694550 137.552277,222.701401 
	C139.705048,222.706161 141.857574,222.809082 144.010376,222.816208 
	C147.265366,222.826996 150.529190,222.934479 153.772964,222.735275 
	C156.719910,222.554291 159.645081,222.018784 163.849319,221.475525 
	C164.372726,223.758911 165.700363,227.283676 165.891953,230.869171 
	C166.264954,237.849152 166.001221,244.863174 166.001221,251.863098 
	C166.001221,270.151184 166.001221,288.439240 166.001221,307.532776 
	C168.307159,308.213593 171.217773,309.575104 174.221512,309.827148 
	C177.644318,310.114349 181.150177,309.412109 184.438049,309.886444 
	C179.278992,321.976013 174.009201,334.019897 168.999771,346.171143 
	C165.651657,354.292664 159.538818,358.327881 151.087021,359.242950 
	C141.004700,360.334564 131.598282,357.652832 122.454384,353.808411 
	C111.905533,349.373260 102.941666,342.610016 94.980774,334.177704 
	C79.915291,348.157806 65.145950,361.835236 50.415436,375.554382 
	C47.242550,378.509430 47.291496,381.775635 50.386589,384.667267 
	C55.613548,389.550476 60.746986,394.600616 66.412453,398.936798 
	C102.911034,426.871490 142.636383,435.027649 185.970474,416.980743 
	C208.237366,407.707489 225.592422,392.814148 235.287308,369.992371 
	C241.986282,354.222961 249.309509,338.717316 255.928528,322.915649 
	C264.797028,301.743713 273.162048,280.360870 282.028381,259.187958 
	C282.937347,257.017273 285.801605,254.290146 287.738220,254.306015 
	C289.733856,254.322388 291.728180,257.352783 293.662903,259.129913 
	C293.983612,259.424500 293.976379,260.061829 294.154510,260.527863 
	C314.349243,313.362549 334.593231,366.178497 354.666687,419.059235 
	C356.474579,423.821869 359.050354,425.820648 364.228333,425.766266 
	C384.885742,425.549316 405.546753,425.688019 426.206451,425.671936 
	C434.870117,425.665192 436.745972,422.866302 433.497345,414.933716 
	C408.212708,353.192139 382.936493,291.447144 357.646210,229.707886 
	C347.807281,205.688873 337.925812,181.687271 328.100403,157.662720 
	C326.847504,154.599243 325.516388,151.912598 321.526520,151.935150 
	C298.705658,152.064148 275.884430,152.130356 252.937866,151.484787 
	C252.353348,151.075317 251.768814,150.665863 251.184311,150.256393 
	C250.814819,151.539062 250.445328,152.821732 250.003235,154.059814 
M726.413025,226.065414 
	C713.907532,217.356018 699.786987,215.308304 684.988525,215.960434 
	C660.274231,217.049561 641.740784,231.808990 635.223572,255.634506 
	C630.826965,271.707672 630.613831,287.971527 634.195679,304.106476 
	C638.576233,323.839081 649.158691,339.097595 669.119019,345.639771 
	C686.747498,351.417664 704.402893,350.403931 721.050476,341.905640 
	C735.113892,334.726532 743.650757,322.917938 747.604309,307.168304 
	C738.556580,307.168304 730.038940,306.673431 721.629211,307.410309 
	C718.234680,307.707733 714.948792,310.504303 711.852051,312.528473 
	C709.533020,314.044281 707.869751,316.712219 705.440308,317.883820 
	C696.014771,322.429352 686.282166,322.919434 677.354614,316.998383 
	C668.464233,311.101868 666.424438,301.679108 666.062439,291.112396 
	C693.984741,291.112396 721.552124,291.112396 750.034302,291.112396 
	C749.591248,282.937317 749.638245,275.279480 748.673279,267.751373 
	C746.576965,251.396423 740.714722,236.820114 726.413025,226.065414 
M544.863647,329.339386 
	C551.040466,321.422791 553.863037,312.253754 554.046692,302.401459 
	C554.369446,285.080078 554.495544,267.748108 554.281067,250.425812 
	C554.105042,236.202072 546.599060,226.321884 533.691345,221.338043 
	C515.123474,214.168747 495.892548,213.621185 476.818512,219.226059 
	C461.728546,223.660233 450.546967,237.488358 450.149048,251.200699 
	C457.953369,251.200699 465.755249,251.067688 473.549652,251.251343 
	C478.114105,251.358887 482.404480,251.601486 485.156006,246.806717 
	C485.882690,245.540359 487.769379,244.712997 489.296204,244.169540 
	C498.666962,240.834320 508.064453,241.484146 517.111023,245.115112 
	C524.154663,247.942139 525.092407,256.639709 518.580505,260.562469 
	C514.161377,263.224579 508.820526,264.662201 503.702820,265.788361 
	C495.751282,267.538086 487.508606,268.036255 479.625519,270.008789 
	C468.198425,272.868103 457.108398,277.022858 450.779510,288.003662 
	C437.378021,311.255646 449.213348,340.482086 475.097900,346.894501 
	C492.441986,351.191223 509.830200,349.443329 526.617920,343.170319 
	C533.787109,340.491455 539.730530,335.997864 544.863647,329.339386 
M932.192627,347.803558 
	C933.011841,347.659790 933.831970,347.521210 934.650085,347.371490 
	C962.928345,342.196930 976.616577,326.244812 977.064819,297.557831 
	C977.293762,282.904327 977.135864,268.244598 977.129883,253.587692 
	C977.122864,236.385986 969.760742,225.848511 953.424377,220.100616 
	C939.608643,215.239624 925.292847,215.048096 910.961487,216.598526 
	C898.421021,217.955215 887.553772,222.989136 879.656616,233.229614 
	C875.675415,238.392136 873.099548,244.179108 872.707336,251.203232 
	C881.453857,251.203232 889.757263,251.140549 898.059021,251.231842 
	C901.748962,251.272430 904.867859,251.298737 907.449402,247.486191 
	C908.978638,245.227798 912.635681,244.037857 915.573181,243.177917 
	C923.174866,240.952621 930.753906,242.171356 938.177002,244.393097 
	C942.104187,245.568481 944.923950,247.837692 945.295715,252.367508 
	C945.675110,256.991364 943.639343,260.333008 939.562500,261.874847 
	C934.779541,263.683746 929.755493,264.912903 924.768372,266.112488 
	C913.335876,268.862366 901.583923,270.606964 890.479370,274.311523 
	C877.959839,278.488068 871.082397,288.037781 869.342773,301.459869 
	C866.193359,325.760468 877.338623,343.442139 900.496155,347.508698 
	C910.477539,349.261444 921.014526,347.850677 932.192627,347.803558 
M788.712280,314.500092 
	C788.783081,296.841217 788.795715,279.181854 788.956970,261.523804 
	C789.011963,255.496292 791.531006,250.540802 796.594116,247.119202 
	C804.939514,241.479477 813.714050,241.263641 822.635193,245.556290 
	C831.131775,249.644623 833.448181,257.048126 833.401184,265.838715 
	C833.292480,286.164703 833.353027,306.491730 833.389709,326.818237 
	C833.393921,329.140564 833.517639,331.488159 833.872925,333.779510 
	C834.839478,340.012146 838.568787,344.580933 844.532898,345.610474 
	C851.606506,346.831482 858.945984,346.512177 865.828369,346.843933 
	C865.828369,316.556885 866.529785,287.244568 865.527649,257.990601 
	C865.038696,243.718735 858.663574,231.398056 844.729919,224.390106 
	C819.611938,211.757065 795.217651,212.994736 771.782776,228.231644 
	C767.525818,230.999451 763.955444,235.549835 761.383545,240.032120 
	C755.943359,249.513367 755.046265,260.249207 755.019104,270.984863 
	C754.959229,294.643494 755.000488,318.302399 755.021667,341.961212 
	C755.022949,343.394775 755.210388,344.828156 755.310913,346.258514 
	C766.594543,346.258514 777.499756,346.258514 788.712158,346.258514 
	C788.712158,335.779297 788.712158,325.639709 788.712280,314.500092 
M625.528198,218.566254 
	C618.762817,219.374939 611.887878,219.671066 605.252502,221.088425 
	C585.346863,225.340408 570.374084,236.154633 563.864685,256.000946 
	C561.159119,264.249817 559.705139,273.205872 559.430481,281.895630 
	C558.794189,302.021576 559.218750,322.181274 559.233887,342.327271 
	C559.234863,343.597046 559.414307,344.866730 559.521729,346.280792 
	C570.778503,346.280792 581.679749,346.280792 592.891968,346.280792 
	C592.891968,344.143860 592.891357,342.334290 592.892151,340.524719 
	C592.901489,319.879211 592.713501,299.231171 592.981506,278.589020 
	C593.204346,261.424957 602.026428,252.978485 619.166260,252.787888 
	C623.090698,252.744232 627.016052,252.781479 631.028931,252.781479 
	C631.028931,241.090637 631.028931,230.015961 631.028931,218.550781 
	C629.301147,218.550781 627.837830,218.550781 625.528198,218.566254 
M605.774658,191.755157 
	C607.852356,194.355865 609.793396,197.085571 612.070618,199.497849 
	C613.072205,200.558823 614.758362,200.973618 616.133606,201.681793 
	C616.575195,200.374771 617.322754,199.084885 617.397095,197.757309 
	C617.573669,194.602219 617.423706,191.429321 617.419739,188.263580 
	C617.409546,180.098953 617.484253,171.932632 617.307312,163.771744 
	C617.284180,162.706543 615.983887,161.669067 615.275208,160.618744 
	C614.523071,161.628235 613.457581,162.540009 613.104065,163.673813 
	C612.725159,164.889084 613.015076,166.313248 613.015015,167.646255 
	C613.014648,175.845932 613.014893,184.045593 613.014893,193.730606 
	C604.466431,182.930115 597.005066,173.370865 589.354797,163.965302 
	C588.049622,162.360657 585.935730,161.413803 584.195435,160.163086 
	C583.781921,160.534775 583.368347,160.906464 582.954834,161.278152 
	C582.954834,172.567505 582.835266,183.859207 583.056641,195.144211 
	C583.100403,197.375931 581.085754,201.544678 585.166687,201.575623 
	C589.277283,201.606812 587.295593,197.430786 587.363098,195.181763 
	C587.608948,186.989151 587.460144,178.784683 587.460144,170.584686 
	C587.860596,170.474243 588.261047,170.363800 588.661438,170.253357 
	C594.214478,177.236877 599.767517,184.220398 605.774658,191.755157 
M545.810364,189.101425 
	C554.700439,187.401794 562.198975,188.776794 566.119568,198.204865 
	C566.429321,198.949814 566.942688,199.811279 567.604309,200.167435 
	C569.035645,200.937912 570.624695,201.415527 572.149292,202.012939 
	C572.342041,201.573059 572.534790,201.133194 572.727539,200.693314 
	C569.827209,196.524185 566.926819,192.355042 563.881836,187.978012 
	C565.057129,187.258026 565.900269,186.779602 566.704346,186.242722 
	C571.855530,182.803375 573.617249,177.861877 572.663879,171.951797 
	C571.742859,166.242447 568.100464,162.307861 562.618286,161.517807 
	C555.485718,160.489914 548.181213,160.654297 540.423828,160.280151 
	C540.423828,173.715469 540.367371,186.160294 540.524475,198.602432 
	C540.537964,199.670090 541.969238,200.719849 542.741943,201.777908 
	C543.494507,200.613022 544.731995,199.514008 544.901001,198.269852 
	C545.278870,195.488571 545.124207,192.634949 545.810364,189.101425 
M522.491638,198.047134 
	C531.463623,191.013290 533.669250,179.507309 527.864746,170.017700 
	C522.218384,160.786682 509.673981,157.479187 499.217377,162.464493 
	C489.497314,167.098633 485.243073,178.118103 488.927490,188.661301 
	C493.800507,202.605865 512.003723,205.594696 522.491638,198.047134 
M632.012573,184.433716 
	C629.520996,189.947311 627.029358,195.460907 624.429077,201.214996 
	C629.009583,201.578033 629.520264,201.722504 630.697571,197.560913 
	C632.315247,191.842239 635.522949,190.001389 641.216553,190.812561 
	C644.802307,191.323441 648.551941,191.257263 652.162415,190.857330 
	C655.633728,190.472794 657.417419,191.768829 658.388611,194.895523 
	C658.829895,196.316376 659.246155,197.908127 660.185120,198.970337 
	C661.380676,200.322891 663.094543,201.217331 664.585022,202.309235 
	C665.007507,201.846481 665.429993,201.383713 665.852539,200.920944 
	C659.999512,188.116241 654.247559,175.263702 648.224182,162.539642 
	C646.666870,159.250015 643.371704,159.738419 641.655090,163.370087 
	C638.462158,170.124771 635.415527,176.948578 632.012573,184.433716 
M478.403442,174.689468 
	C478.403442,170.219193 478.403442,165.748917 478.403442,160.609970 
	C472.396637,160.609970 466.780701,160.552567 461.169067,160.681396 
	C460.454102,160.697815 459.761444,161.686752 459.058472,162.225128 
	C459.771027,162.899109 460.437408,164.088211 461.204224,164.156967 
	C464.346008,164.438644 467.563660,164.094009 470.657074,164.585754 
	C471.881500,164.780411 473.760956,166.524933 473.797089,167.614990 
	C474.056030,175.429565 474.093964,183.263107 473.838348,191.078751 
	C473.683075,195.825806 470.606110,198.615372 465.934235,197.935028 
	C462.875275,197.489563 460.020660,195.640854 456.314941,194.106049 
	C456.314941,195.440903 455.788513,197.126663 456.407227,198.013855 
	C458.918976,201.615570 466.033234,203.135010 471.136780,201.461304 
	C475.889740,199.902573 477.927734,196.315475 478.116211,191.593689 
	C478.328583,186.273804 478.317841,180.945007 478.403442,174.689468 
M677.167847,187.442810 
	C677.167236,179.626190 677.242676,171.807999 677.080383,163.994751 
	C677.057190,162.880646 675.882141,161.790482 675.240173,160.689240 
	C674.473755,161.826538 673.217896,162.894211 673.044067,164.115829 
	C672.696106,166.561020 672.940063,169.090485 672.940063,171.585144 
	C672.940002,181.502304 672.940063,191.419449 672.940063,201.866714 
	C681.152710,201.866714 688.765686,201.953766 696.372925,201.782608 
	C697.667847,201.753479 698.937866,200.617813 700.219421,199.993347 
	C698.981567,199.317581 697.761230,198.098358 696.502991,198.057877 
	C690.250488,197.856705 683.987976,197.966064 677.167969,197.966064 
	C677.167969,194.320389 677.167969,191.371597 677.167847,187.442810 
M91.996643,184.538635 
	C91.884193,182.231339 91.771751,179.924026 91.659302,177.616730 
	C91.339180,177.658478 91.019051,177.700211 90.698929,177.741959 
	C90.698929,182.603790 90.698929,187.465637 90.698929,192.327484 
	C91.131500,192.315979 91.564072,192.304489 91.996643,192.292984 
	C91.996643,190.015213 91.996643,187.737427 91.996643,184.538635 
z"/>
<path fill="#313C42" opacity="1.000000" stroke="none" 
	d="
M253.063339,152.217880 
	C275.884430,152.130356 298.705658,152.064148 321.526520,151.935150 
	C325.516388,151.912598 326.847504,154.599243 328.100403,157.662720 
	C337.925812,181.687271 347.807281,205.688873 357.646210,229.707886 
	C382.936493,291.447144 408.212708,353.192139 433.497345,414.933716 
	C436.745972,422.866302 434.870117,425.665192 426.206451,425.671936 
	C405.546753,425.688019 384.885742,425.549316 364.228333,425.766266 
	C359.050354,425.820648 356.474579,423.821869 354.666687,419.059235 
	C334.593231,366.178497 314.349243,313.362549 294.154510,260.527863 
	C293.976379,260.061829 293.983612,259.424500 293.662903,259.129913 
	C291.728180,257.352783 289.733856,254.322388 287.738220,254.306015 
	C285.801605,254.290146 282.937347,257.017273 282.028381,259.187958 
	C273.162048,280.360870 264.797028,301.743713 255.928528,322.915649 
	C249.309509,338.717316 241.986282,354.222961 235.287308,369.992371 
	C225.592422,392.814148 208.237366,407.707489 185.970474,416.980743 
	C142.636383,435.027649 102.911034,426.871490 66.412453,398.936798 
	C60.746986,394.600616 55.613548,389.550476 50.386589,384.667267 
	C47.291496,381.775635 47.242550,378.509430 50.415436,375.554382 
	C65.145950,361.835236 79.915291,348.157806 94.980774,334.177704 
	C102.941666,342.610016 111.905533,349.373260 122.454384,353.808411 
	C131.598282,357.652832 141.004700,360.334564 151.087021,359.242950 
	C159.538818,358.327881 165.651657,354.292664 168.999771,346.171143 
	C174.009201,334.019897 179.278992,321.976013 184.735107,309.257568 
	C206.360199,258.688721 227.695160,208.751663 248.982239,158.794189 
	C249.608658,157.324066 249.730911,155.639145 250.088226,154.054367 
	C250.088242,154.054367 250.003235,154.059814 250.303986,153.939301 
	C251.424255,153.285156 252.243805,152.751526 253.063339,152.217880 
z"/>
<path fill="#323C42" opacity="1.000000" stroke="none" 
	d="
M726.712402,226.262939 
	C740.714722,236.820114 746.576965,251.396423 748.673279,267.751373 
	C749.638245,275.279480 749.591248,282.937317 750.034302,291.112396 
	C721.552124,291.112396 693.984741,291.112396 666.062439,291.112396 
	C666.424438,301.679108 668.464233,311.101868 677.354614,316.998383 
	C686.282166,322.919434 696.014771,322.429352 705.440308,317.883820 
	C707.869751,316.712219 709.533020,314.044281 711.852051,312.528473 
	C714.948792,310.504303 718.234680,307.707733 721.629211,307.410309 
	C730.038940,306.673431 738.556580,307.168304 747.604309,307.168304 
	C743.650757,322.917938 735.113892,334.726532 721.050476,341.905640 
	C704.402893,350.403931 686.747498,351.417664 669.119019,345.639771 
	C649.158691,339.097595 638.576233,323.839081 634.195679,304.106476 
	C630.613831,287.971527 630.826965,271.707672 635.223572,255.634506 
	C641.740784,231.808990 660.274231,217.049561 684.988525,215.960434 
	C699.786987,215.308304 713.907532,217.356018 726.712402,226.262939 
M676.937378,247.306244 
	C669.066040,252.614182 666.381165,260.311432 666.165771,269.741638 
	C674.718689,269.741638 682.688965,269.741669 690.659180,269.741669 
	C698.722107,269.741669 706.784973,269.741638 714.844177,269.741638 
	C714.294006,247.621964 696.652466,237.176102 676.937378,247.306244 
z"/>
<path fill="#323C42" opacity="1.000000" stroke="none" 
	d="
M544.636230,329.617065 
	C539.730530,335.997864 533.787109,340.491455 526.617920,343.170319 
	C509.830200,349.443329 492.441986,351.191223 475.097900,346.894501 
	C449.213348,340.482086 437.378021,311.255646 450.779510,288.003662 
	C457.108398,277.022858 468.198425,272.868103 479.625519,270.008789 
	C487.508606,268.036255 495.751282,267.538086 503.702820,265.788361 
	C508.820526,264.662201 514.161377,263.224579 518.580505,260.562469 
	C525.092407,256.639709 524.154663,247.942139 517.111023,245.115112 
	C508.064453,241.484146 498.666962,240.834320 489.296204,244.169540 
	C487.769379,244.712997 485.882690,245.540359 485.156006,246.806717 
	C482.404480,251.601486 478.114105,251.358887 473.549652,251.251343 
	C465.755249,251.067688 457.953369,251.200699 450.149048,251.200699 
	C450.546967,237.488358 461.728546,223.660233 476.818512,219.226059 
	C495.892548,213.621185 515.123474,214.168747 533.691345,221.338043 
	C546.599060,226.321884 554.105042,236.202072 554.281067,250.425812 
	C554.495544,267.748108 554.369446,285.080078 554.046692,302.401459 
	C553.863037,312.253754 551.040466,321.422791 544.636230,329.617065 
M477.339142,308.376038 
	C477.873535,314.621155 480.211151,319.669617 486.574799,321.895813 
	C502.230591,327.372589 519.657654,317.640808 522.430725,301.321960 
	C523.437988,295.394653 522.592651,289.152527 522.592651,283.209686 
	C511.467590,286.146729 500.231659,288.947571 489.098389,292.109650 
	C481.495392,294.268982 477.615936,299.642059 477.339142,308.376038 
z"/>
<path fill="#323C42" opacity="1.000000" stroke="none" 
	d="
M931.745850,347.840332 
	C921.014526,347.850677 910.477539,349.261444 900.496155,347.508698 
	C877.338623,343.442139 866.193359,325.760468 869.342773,301.459869 
	C871.082397,288.037781 877.959839,278.488068 890.479370,274.311523 
	C901.583923,270.606964 913.335876,268.862366 924.768372,266.112488 
	C929.755493,264.912903 934.779541,263.683746 939.562500,261.874847 
	C943.639343,260.333008 945.675110,256.991364 945.295715,252.367508 
	C944.923950,247.837692 942.104187,245.568481 938.177002,244.393097 
	C930.753906,242.171356 923.174866,240.952621 915.573181,243.177917 
	C912.635681,244.037857 908.978638,245.227798 907.449402,247.486191 
	C904.867859,251.298737 901.748962,251.272430 898.059021,251.231842 
	C889.757263,251.140549 881.453857,251.203232 872.707336,251.203232 
	C873.099548,244.179108 875.675415,238.392136 879.656616,233.229614 
	C887.553772,222.989136 898.421021,217.955215 910.961487,216.598526 
	C925.292847,215.048096 939.608643,215.239624 953.424377,220.100616 
	C969.760742,225.848511 977.122864,236.385986 977.129883,253.587692 
	C977.135864,268.244598 977.293762,282.904327 977.064819,297.557831 
	C976.616577,326.244812 962.928345,342.196930 934.650085,347.371490 
	C933.831970,347.521210 933.011841,347.659790 931.745850,347.840332 
M900.649170,311.602295 
	C901.670654,316.263123 903.958862,320.124268 908.686707,321.558167 
	C919.461426,324.825897 929.559326,323.276459 937.926819,315.482208 
	C947.581055,306.489288 946.089233,294.548828 945.935120,283.149231 
	C934.727844,286.023010 923.724609,288.426300 912.993530,291.717133 
	C902.828857,294.834290 899.532166,300.496063 900.649170,311.602295 
z"/>
<path fill="#343E44" opacity="1.000000" stroke="none" 
	d="
M788.712219,315.000122 
	C788.712158,325.639709 788.712158,335.779297 788.712158,346.258514 
	C777.499756,346.258514 766.594543,346.258514 755.310913,346.258514 
	C755.210388,344.828156 755.022949,343.394775 755.021667,341.961212 
	C755.000488,318.302399 754.959229,294.643494 755.019104,270.984863 
	C755.046265,260.249207 755.943359,249.513367 761.383545,240.032120 
	C763.955444,235.549835 767.525818,230.999451 771.782776,228.231644 
	C795.217651,212.994736 819.611938,211.757065 844.729919,224.390106 
	C858.663574,231.398056 865.038696,243.718735 865.527649,257.990601 
	C866.529785,287.244568 865.828369,316.556885 865.828369,346.843933 
	C858.945984,346.512177 851.606506,346.831482 844.532898,345.610474 
	C838.568787,344.580933 834.839478,340.012146 833.872925,333.779510 
	C833.517639,331.488159 833.393921,329.140564 833.389709,326.818237 
	C833.353027,306.491730 833.292480,286.164703 833.401184,265.838715 
	C833.448181,257.048126 831.131775,249.644623 822.635193,245.556290 
	C813.714050,241.263641 804.939514,241.479477 796.594116,247.119202 
	C791.531006,250.540802 789.011963,255.496292 788.956970,261.523804 
	C788.795715,279.181854 788.783081,296.841217 788.712219,315.000122 
z"/>
<path fill="#333D44" opacity="1.000000" stroke="none" 
	d="
M625.951416,218.558517 
	C627.837830,218.550781 629.301147,218.550781 631.028931,218.550781 
	C631.028931,230.015961 631.028931,241.090637 631.028931,252.781479 
	C627.016052,252.781479 623.090698,252.744232 619.166260,252.787888 
	C602.026428,252.978485 593.204346,261.424957 592.981506,278.589020 
	C592.713501,299.231171 592.901489,319.879211 592.892151,340.524719 
	C592.891357,342.334290 592.891968,344.143860 592.891968,346.280792 
	C581.679749,346.280792 570.778503,346.280792 559.521729,346.280792 
	C559.414307,344.866730 559.234863,343.597046 559.233887,342.327271 
	C559.218750,322.181274 558.794189,302.021576 559.430481,281.895630 
	C559.705139,273.205872 561.159119,264.249817 563.864685,256.000946 
	C570.374084,236.154633 585.346863,225.340408 605.252502,221.088425 
	C611.887878,219.671066 618.762817,219.374939 625.951416,218.558517 
z"/>
<path fill="#EFF9F9" opacity="1.000000" stroke="none" 
	d="
M249.725830,154.006149 
	C249.730911,155.639145 249.608658,157.324066 248.982239,158.794189 
	C227.695160,208.751663 206.360199,258.688721 184.826050,308.884277 
	C181.150177,309.412109 177.644318,310.114349 174.221512,309.827148 
	C171.217773,309.575104 168.307159,308.213593 166.001221,307.532776 
	C166.001221,288.439240 166.001221,270.151184 166.001221,251.863098 
	C166.001221,244.863174 166.264954,237.849152 165.891953,230.869171 
	C165.700363,227.283676 164.372726,223.758911 163.849319,221.475525 
	C159.645081,222.018784 156.719910,222.554291 153.772964,222.735275 
	C150.529190,222.934479 147.265366,222.826996 144.010376,222.816208 
	C141.857574,222.809082 139.705048,222.706161 137.552277,222.701401 
	C134.455994,222.694550 131.359344,222.721069 128.263412,222.769760 
	C127.268982,222.785370 126.276489,222.982086 125.282890,222.984055 
	C116.371559,223.001694 107.460182,222.994339 99.442368,222.994339 
	C98.160271,220.910843 97.565353,218.691574 96.173241,217.930481 
	C92.796288,216.084305 93.001480,213.386002 93.075218,210.283737 
	C93.450500,194.494675 93.808174,178.702545 93.856567,162.910522 
	C93.866669,159.615295 91.029213,156.242050 93.758202,153.002090 
	C96.834290,149.350052 101.197960,149.991302 105.340294,149.992615 
	C148.839813,150.006317 192.339386,150.025269 235.838730,149.935181 
	C238.251953,149.930191 240.663208,148.978073 243.935501,148.284485 
	C245.203247,149.609573 247.283356,151.783752 249.725830,154.006149 
M168.855820,304.332703 
	C173.823990,307.777740 176.547150,306.958710 179.083710,301.159363 
	C199.030090,255.555969 218.964905,209.947479 238.895905,164.337326 
	C240.602951,160.430908 242.256485,156.501099 244.011154,152.404053 
	C242.861649,152.175751 242.386673,151.998932 241.911621,151.998795 
	C195.253555,151.985291 148.595474,151.966461 101.937439,152.010391 
	C96.720467,152.015305 95.051353,153.921234 95.037895,159.582367 
	C94.999077,175.912552 95.027832,192.242950 95.048279,208.573242 
	C95.057663,216.069061 96.270592,217.290817 103.775269,217.301163 
	C122.271744,217.326675 140.768311,217.349823 159.264709,217.313248 
	C163.470123,217.304947 166.903214,218.232910 167.753693,223.909882 
	C167.740768,248.762894 167.705185,273.615967 167.764420,298.468781 
	C167.768494,300.176819 168.481033,301.883148 168.855820,304.332703 
z"/>
<path fill="#42979B" opacity="1.000000" stroke="none" 
	d="
M605.547607,191.479538 
	C599.767517,184.220398 594.214478,177.236877 588.661438,170.253357 
	C588.261047,170.363800 587.860596,170.474243 587.460144,170.584686 
	C587.460144,178.784683 587.608948,186.989151 587.363098,195.181763 
	C587.295593,197.430786 589.277283,201.606812 585.166687,201.575623 
	C581.085754,201.544678 583.100403,197.375931 583.056641,195.144211 
	C582.835266,183.859207 582.954834,172.567505 582.954834,161.278152 
	C583.368347,160.906464 583.781921,160.534775 584.195435,160.163086 
	C585.935730,161.413803 588.049622,162.360657 589.354797,163.965302 
	C597.005066,173.370865 604.466431,182.930115 613.014893,193.730606 
	C613.014893,184.045593 613.014648,175.845932 613.015015,167.646255 
	C613.015076,166.313248 612.725159,164.889084 613.104065,163.673813 
	C613.457581,162.540009 614.523071,161.628235 615.275208,160.618744 
	C615.983887,161.669067 617.284180,162.706543 617.307312,163.771744 
	C617.484253,171.932632 617.409546,180.098953 617.419739,188.263580 
	C617.423706,191.429321 617.573669,194.602219 617.397095,197.757309 
	C617.322754,199.084885 616.575195,200.374771 616.133667,201.681793 
	C614.758362,200.973618 613.072205,200.558823 612.070618,199.497849 
	C609.793396,197.085571 607.852356,194.355865 605.547607,191.479538 
z"/>
<path fill="#45989B" opacity="1.000000" stroke="none" 
	d="
M545.498413,189.456116 
	C545.124207,192.634949 545.278870,195.488571 544.901001,198.269852 
	C544.731995,199.514008 543.494507,200.613022 542.741943,201.777908 
	C541.969238,200.719849 540.537964,199.670090 540.524475,198.602432 
	C540.367371,186.160294 540.423828,173.715469 540.423828,160.280151 
	C548.181213,160.654297 555.485718,160.489914 562.618286,161.517807 
	C568.100464,162.307861 571.742859,166.242447 572.663879,171.951797 
	C573.617249,177.861877 571.855530,182.803375 566.704346,186.242722 
	C565.900269,186.779602 565.057129,187.258026 563.881836,187.978012 
	C566.926819,192.355042 569.827209,196.524185 572.727539,200.693314 
	C572.534790,201.133194 572.342041,201.573059 572.149292,202.012939 
	C570.624695,201.415527 569.035645,200.937912 567.604309,200.167435 
	C566.942688,199.811279 566.429321,198.949814 566.119568,198.204865 
	C562.198975,188.776794 554.700439,187.401794 545.498413,189.456116 
M555.288879,185.003326 
	C556.451355,184.972229 557.624512,185.030869 558.774597,184.894974 
	C564.682800,184.196884 568.057922,180.730865 568.231689,175.254868 
	C568.423218,169.219406 565.609863,165.717880 559.234985,164.884262 
	C554.702332,164.291504 550.085938,164.338409 545.233398,164.085602 
	C545.233398,171.385208 545.233398,177.938858 545.233398,185.005600 
	C548.460815,185.005600 551.408752,185.005600 555.288879,185.003326 
z"/>
<path fill="#4A999B" opacity="1.000000" stroke="none" 
	d="
M522.208008,198.278152 
	C512.003723,205.594696 493.800507,202.605865 488.927490,188.661301 
	C485.243073,178.118103 489.497314,167.098633 499.217377,162.464493 
	C509.673981,157.479187 522.218384,160.786682 527.864746,170.017700 
	C533.669250,179.507309 531.463623,191.013290 522.208008,198.278152 
M518.537048,166.706085 
	C517.650513,166.256470 516.797058,165.718857 515.872314,165.370911 
	C506.991852,162.029694 497.388947,165.744202 493.537140,173.980469 
	C489.746338,182.086273 493.132080,192.094818 501.205933,196.650085 
	C508.041718,200.506851 519.109253,197.681900 523.517029,190.955276 
	C528.746582,182.974594 526.985413,173.390549 518.537048,166.706085 
z"/>
<path fill="#4D9B9E" opacity="1.000000" stroke="none" 
	d="
M632.160278,184.088669 
	C635.415527,176.948578 638.462158,170.124771 641.655090,163.370087 
	C643.371704,159.738419 646.666870,159.250015 648.224182,162.539642 
	C654.247559,175.263702 659.999512,188.116241 665.852539,200.920944 
	C665.429993,201.383713 665.007507,201.846481 664.585022,202.309235 
	C663.094543,201.217331 661.380676,200.322891 660.185120,198.970337 
	C659.246155,197.908127 658.829895,196.316376 658.388611,194.895523 
	C657.417419,191.768829 655.633728,190.472794 652.162415,190.857330 
	C648.551941,191.257263 644.802307,191.323441 641.216553,190.812561 
	C635.522949,190.001389 632.315247,191.842239 630.697571,197.560913 
	C629.520264,201.722504 629.009583,201.578033 624.429077,201.214996 
	C627.029358,195.460907 629.520996,189.947311 632.160278,184.088669 
M653.340881,183.522293 
	C650.733887,177.801636 648.126953,172.080978 645.037415,165.301453 
	C641.611328,173.114532 638.729065,179.687531 635.477905,187.101761 
	C641.684265,187.101761 647.066040,187.169922 652.438599,186.978912 
	C652.893188,186.962769 653.286194,185.212662 653.340881,183.522293 
z"/>
<path fill="#469497" opacity="1.000000" stroke="none" 
	d="
M478.403809,175.154785 
	C478.317841,180.945007 478.328583,186.273804 478.116211,191.593689 
	C477.927734,196.315475 475.889740,199.902573 471.136780,201.461304 
	C466.033234,203.135010 458.918976,201.615570 456.407227,198.013855 
	C455.788513,197.126663 456.314941,195.440903 456.314941,194.106049 
	C460.020660,195.640854 462.875275,197.489563 465.934235,197.935028 
	C470.606110,198.615372 473.683075,195.825806 473.838348,191.078751 
	C474.093964,183.263107 474.056030,175.429565 473.797089,167.614990 
	C473.760956,166.524933 471.881500,164.780411 470.657074,164.585754 
	C467.563660,164.094009 464.346008,164.438644 461.204224,164.156967 
	C460.437408,164.088211 459.771027,162.899109 459.058472,162.225128 
	C459.761444,161.686752 460.454102,160.697815 461.169067,160.681396 
	C466.780701,160.552567 472.396637,160.609970 478.403442,160.609970 
	C478.403442,165.748917 478.403442,170.219193 478.403809,175.154785 
z"/>
<path fill="#42979B" opacity="1.000000" stroke="none" 
	d="
M677.167908,187.932800 
	C677.167969,191.371597 677.167969,194.320389 677.167969,197.966064 
	C683.987976,197.966064 690.250488,197.856705 696.502991,198.057877 
	C697.761230,198.098358 698.981567,199.317581 700.219421,199.993347 
	C698.937866,200.617813 697.667847,201.753479 696.372925,201.782608 
	C688.765686,201.953766 681.152710,201.866714 672.940063,201.866714 
	C672.940063,191.419449 672.940002,181.502304 672.940063,171.585144 
	C672.940063,169.090485 672.696106,166.561020 673.044067,164.115829 
	C673.217896,162.894211 674.473755,161.826538 675.240173,160.689240 
	C675.882141,161.790482 677.057190,162.880646 677.080383,163.994751 
	C677.242676,171.807999 677.167236,179.626190 677.167908,187.932800 
z"/>
<path fill="#EFF9F9" opacity="1.000000" stroke="none" 
	d="
M91.996643,184.999146 
	C91.996643,187.737427 91.996643,190.015213 91.996643,192.292984 
	C91.564072,192.304489 91.131500,192.315979 90.698929,192.327484 
	C90.698929,187.465637 90.698929,182.603790 90.698929,177.741959 
	C91.019051,177.700211 91.339180,177.658478 91.659302,177.616730 
	C91.771751,179.924026 91.884193,182.231339 91.996643,184.999146 
z"/>
<path fill="#EFF9F9" opacity="1.000000" stroke="none" 
	d="
M253.000610,151.851334 
	C252.243805,152.751526 251.424255,153.285156 250.340271,153.961609 
	C250.445328,152.821732 250.814819,151.539062 251.184296,150.256393 
	C251.768814,150.665863 252.353348,151.075317 253.000610,151.851334 
z"/>
<path fill="#F7F9F8" opacity="1.000000" stroke="none" 
	d="
M677.257690,247.114731 
	C696.652466,237.176102 714.294006,247.621964 714.844177,269.741638 
	C706.784973,269.741638 698.722107,269.741669 690.659180,269.741669 
	C682.688965,269.741669 674.718689,269.741638 666.165771,269.741638 
	C666.381165,260.311432 669.066040,252.614182 677.257690,247.114731 
z"/>
<path fill="#FAFBFB" opacity="1.000000" stroke="none" 
	d="
M477.341553,307.972168 
	C477.615936,299.642059 481.495392,294.268982 489.098389,292.109650 
	C500.231659,288.947571 511.467590,286.146729 522.592651,283.209686 
	C522.592651,289.152527 523.437988,295.394653 522.430725,301.321960 
	C519.657654,317.640808 502.230591,327.372589 486.574799,321.895813 
	C480.211151,319.669617 477.873535,314.621155 477.341553,307.972168 
z"/>
<path fill="#FAFBFB" opacity="1.000000" stroke="none" 
	d="
M900.548767,311.204742 
	C899.532166,300.496063 902.828857,294.834290 912.993530,291.717133 
	C923.724609,288.426300 934.727844,286.023010 945.935120,283.149231 
	C946.089233,294.548828 947.581055,306.489288 937.926819,315.482208 
	C929.559326,323.276459 919.461426,324.825897 908.686707,321.558167 
	C903.958862,320.124268 901.670654,316.263123 900.548767,311.204742 
z"/>
<path fill="#2F969C" opacity="1.000000" stroke="none" 
	d="
M167.916412,222.981064 
	C166.903214,218.232910 163.470123,217.304947 159.264709,217.313248 
	C140.768311,217.349823 122.271744,217.326675 103.775269,217.301163 
	C96.270592,217.290817 95.057663,216.069061 95.048279,208.573242 
	C95.027832,192.242950 94.999077,175.912552 95.037895,159.582367 
	C95.051353,153.921234 96.720467,152.015305 101.937439,152.010391 
	C148.595474,151.966461 195.253555,151.985291 241.911621,151.998795 
	C242.386673,151.998932 242.861649,152.175751 244.011154,152.404053 
	C242.256485,156.501099 240.602951,160.430908 238.895905,164.337326 
	C218.964905,209.947479 199.030090,255.555969 179.083710,301.159363 
	C176.547150,306.958710 173.823990,307.777740 168.895050,303.446381 
	C168.956467,277.410583 168.995789,252.261063 168.954453,227.111694 
	C168.952194,225.734253 168.277893,224.357910 167.916412,222.981064 
z"/>
<path fill="#3A8C8A" opacity="1.000000" stroke="none" 
	d="
M167.835052,223.445465 
	C168.277893,224.357910 168.952194,225.734253 168.954453,227.111694 
	C168.995789,252.261063 168.956467,277.410583 168.899185,303.075165 
	C168.481033,301.883148 167.768494,300.176819 167.764420,298.468781 
	C167.705185,273.615967 167.740768,248.762894 167.835052,223.445465 
z"/>
<path fill="#F4FCFC" opacity="1.000000" stroke="none" 
	d="
M554.822754,185.004456 
	C551.408752,185.005600 548.460815,185.005600 545.233398,185.005600 
	C545.233398,177.938858 545.233398,171.385208 545.233398,164.085602 
	C550.085938,164.338409 554.702332,164.291504 559.234985,164.884262 
	C565.609863,165.717880 568.423218,169.219406 568.231689,175.254868 
	C568.057922,180.730865 564.682800,184.196884 558.774597,184.894974 
	C557.624512,185.030869 556.451355,184.972229 554.822754,185.004456 
z"/>
<path fill="#F7FDFC" opacity="1.000000" stroke="none" 
	d="
M518.840271,166.930664 
	C526.985413,173.390549 528.746582,182.974594 523.517029,190.955276 
	C519.109253,197.681900 508.041718,200.506851 501.205933,196.650085 
	C493.132080,192.094818 489.746338,182.086273 493.537140,173.980469 
	C497.388947,165.744202 506.991852,162.029694 515.872314,165.370911 
	C516.797058,165.718857 517.650513,166.256470 518.840271,166.930664 
z"/>
<path fill="#EFF9F9" opacity="1.000000" stroke="none" 
	d="
M653.524353,183.895203 
	C653.286194,185.212662 652.893188,186.962769 652.438599,186.978912 
	C647.066040,187.169922 641.684265,187.101761 635.477905,187.101761 
	C638.729065,179.687531 641.611328,173.114532 645.037415,165.301453 
	C648.126953,172.080978 650.733887,177.801636 653.524353,183.895203 
z"/>
</svg>